<svg width="30" height="30" viewBox="0 0 30 30" fill="none" xmlns="http://www.w3.org/2000/svg">
<g clip-path="url(#clip0_64_272)">
<path d="M17.5072 18.3805C16.7608 18.878 15.8938 19.1411 15 19.1411C14.1062 19.1411 13.2393 18.878 12.4929 18.3805L0.199746 10.1848C0.131543 10.1393 0.0650976 10.0919 0 10.0431V23.4727C0 25.0124 1.24951 26.2344 2.7617 26.2344H27.2382C28.778 26.2344 29.9999 24.9848 29.9999 23.4727V10.0431C29.9347 10.092 29.8682 10.1395 29.7998 10.185L17.5072 18.3805Z" fill="#4F0381"/>
<path d="M1.1748 8.72219L13.4679 16.9179C13.9333 17.2282 14.4666 17.3833 14.9999 17.3833C15.5333 17.3833 16.0667 17.2281 16.5321 16.9179L28.8252 8.72219C29.5608 8.23205 30 7.41174 30 6.52639C30 5.00406 28.7615 3.76562 27.2392 3.76562H2.76076C1.2385 3.76568 0 5.00412 0 6.52785C0 7.41174 0.439219 8.23205 1.1748 8.72219Z" fill="#4F0381"/>
</g>
<defs>
<clipPath id="clip0_64_272">
<rect width="30" height="30" fill="white"/>
</clipPath>
</defs>
</svg>
