<svg width="30" height="30" viewBox="0 0 30 30" fill="none" xmlns="http://www.w3.org/2000/svg">
<g clip-path="url(#clip0_64_275)">
<path d="M25.8486 20.8798C24.0364 19.3298 22.1971 18.3908 20.4071 19.9385L19.3382 20.874C18.5562 21.553 17.1021 24.7257 11.4803 18.2585C5.85957 11.7996 9.20435 10.794 9.98757 10.1208L11.0623 9.18419C12.843 7.63297 12.171 5.68019 10.8867 3.67005L10.1117 2.45249C8.82152 0.447024 7.41664 -0.87005 5.63128 0.678829L4.6666 1.52176C3.87752 2.09658 1.67186 3.96507 1.13684 7.51473C0.492938 11.7739 2.52416 16.6511 7.17782 22.0025C11.8256 27.3563 16.3763 30.0455 20.6869 29.9986C24.2693 29.96 26.4328 28.0377 27.1095 27.3387L28.0777 26.4946C29.8584 24.9469 28.7521 23.3711 26.9386 21.8176L25.8486 20.8798Z" fill="#4F0381"/>
</g>
<defs>
<clipPath id="clip0_64_275">
<rect width="30" height="30" fill="white"/>
</clipPath>
</defs>
</svg>
