<svg width="108" height="101" viewBox="0 0 108 101" fill="none" xmlns="http://www.w3.org/2000/svg">
<path d="M75.4917 13.3066H37.8028C37.5423 13.3068 37.2843 13.2652 37.0436 13.1842C36.8029 13.1032 36.5841 12.9845 36.3998 12.8348C36.2156 12.685 36.0694 12.5072 35.9697 12.3115C35.8699 12.1159 35.8186 11.9061 35.8186 11.6943V0.403931H39.7858V10.0809H73.5087V0.403931H77.4759V11.6943C77.4759 11.9061 77.4246 12.1159 77.3249 12.3115C77.2251 12.5072 77.0789 12.685 76.8947 12.8348C76.7104 12.9845 76.4917 13.1032 76.2509 13.1842C76.0102 13.2652 75.7522 13.3068 75.4917 13.3066Z" fill="#8C42C5"/>
<path d="M45.7372 45.5655H41.77C40.1921 45.5641 38.6793 45.0538 37.5636 44.1466C36.4479 43.2394 35.8203 42.0094 35.8186 40.7264V22.9847C35.8174 22.7329 35.8886 22.4844 36.0265 22.2589L39.7858 16.1528V11.6943H43.753V16.5334C43.7542 16.7852 43.683 17.0337 43.5451 17.2592L39.7858 23.3704V40.7264C39.7861 41.1542 39.9953 41.5644 40.3673 41.8669C40.7394 42.1694 41.2439 42.3395 41.77 42.3398H43.7543V29.4361H47.7214V43.9521C47.7216 44.164 47.6704 44.3739 47.5707 44.5697C47.4711 44.7655 47.3249 44.9434 47.1406 45.0932C46.9564 45.2431 46.7376 45.3619 46.4967 45.4429C46.2559 45.524 45.9978 45.5656 45.7372 45.5655Z" fill="#8C42C5"/>
<path d="M53.6715 45.5654H45.7372C45.4765 45.5656 45.2184 45.5239 44.9776 45.4429C44.7368 45.3619 44.518 45.243 44.3337 45.0932C44.1494 44.9434 44.0033 44.7655 43.9036 44.5696C43.804 44.3738 43.7528 44.164 43.7529 43.9521V29.436H47.7201V42.3387H51.6873V29.436H55.6545V43.9521C55.6546 44.1639 55.6035 44.3737 55.5039 44.5694C55.4043 44.7651 55.2583 44.943 55.0741 45.0928C54.89 45.2427 54.6713 45.3615 54.4307 45.4426C54.19 45.5237 53.932 45.5654 53.6715 45.5654Z" fill="#8C42C5"/>
<path d="M61.6056 45.5654H53.6712C53.4106 45.5656 53.1525 45.5239 52.9117 45.4429C52.6709 45.3619 52.4521 45.243 52.2678 45.0932C52.0835 44.9434 51.9374 44.7655 51.8377 44.5696C51.7381 44.3738 51.6868 44.164 51.687 43.9521V29.436H55.6542V42.3387H59.6214V29.436H63.5886V43.9521C63.5887 44.1639 63.5376 44.3737 63.438 44.5694C63.3384 44.7651 63.1924 44.943 63.0082 45.0928C62.8241 45.2427 62.6054 45.3615 62.3647 45.4426C62.1241 45.5237 61.8661 45.5654 61.6056 45.5654Z" fill="#8C42C5"/>
<path d="M73.5085 35.8874H69.5414C69.2808 35.8875 69.0229 35.8459 68.7821 35.765C68.5414 35.684 68.3226 35.5653 68.1384 35.4155C67.9541 35.2658 67.8079 35.088 67.7082 34.8923C67.6085 34.6966 67.5571 34.4869 67.5571 34.2751V27.8237H71.5243V32.6628H73.5085C74.0347 32.6625 74.5392 32.4924 74.9112 32.1899C75.2833 31.8874 75.4924 31.4772 75.4928 31.0494V23.6524L68.1399 17.6739C67.9552 17.5244 67.8088 17.3466 67.709 17.1509C67.6092 16.9551 67.558 16.7453 67.5584 16.5334V11.6943H71.5256V15.8656L78.8784 21.8442C79.0631 21.9937 79.2096 22.1714 79.3094 22.3672C79.4092 22.5629 79.4603 22.7728 79.4599 22.9847V31.0494C79.4579 32.3322 78.8302 33.562 77.7145 34.4689C76.5988 35.3759 75.0862 35.886 73.5085 35.8874Z" fill="#8C42C5"/>
<path d="M65.5742 45.5654H61.607C61.3464 45.5655 61.0883 45.5239 60.8475 45.4429C60.6067 45.3618 60.3879 45.243 60.2036 45.0932C60.0193 44.9433 59.8732 44.7654 59.7735 44.5696C59.6738 44.3738 59.6226 44.164 59.6228 43.952V29.436H63.59V42.3397H65.5742C66.1001 42.3392 66.6043 42.169 66.9761 41.8665C67.3478 41.564 67.5568 41.154 67.5572 40.7264V26.2103H71.5243V40.7264C71.5227 42.0092 70.8953 43.239 69.7798 44.1462C68.6643 45.0534 67.1519 45.5638 65.5742 45.5654Z" fill="#8C42C5"/>
<path d="M25.8998 50.4036H21.9326V37.5009C21.9343 36.2179 22.5619 34.9879 23.6776 34.0807C24.7933 33.1735 26.3061 32.6632 27.884 32.6619H37.8026V35.8875H27.884C27.3579 35.8878 26.8534 36.0579 26.4813 36.3604C26.1093 36.6629 25.9001 37.0731 25.8998 37.5009V50.4036Z" fill="#8C42C5"/>
<path d="M85.409 50.4036H81.4418V37.5009C81.4415 37.0731 81.2323 36.6629 80.8603 36.3604C80.4882 36.0579 79.9837 35.8878 79.4576 35.8875H69.5403V32.6619H79.4589C81.0368 32.6632 82.5496 33.1735 83.6653 34.0807C84.781 34.9879 85.4086 36.2179 85.4103 37.5009L85.409 50.4036Z" fill="#8C42C5"/>
<path d="M101.279 100.404H6.06396C4.48606 100.402 2.97328 99.8922 1.85754 98.985C0.7418 98.0778 0.114237 96.8478 0.112549 95.5648V53.63C0.114237 52.3471 0.7418 51.117 1.85754 50.2098C2.97328 49.3027 4.48606 48.7924 6.06396 48.791H101.279C102.857 48.7924 104.37 49.3027 105.485 50.2098C106.601 51.117 107.229 52.3471 107.23 53.63V95.5648C107.229 96.8478 106.601 98.0778 105.485 98.985C104.37 99.8922 102.857 100.402 101.279 100.404ZM6.06396 52.0167C5.53781 52.017 5.03331 52.187 4.66127 52.4895C4.28923 52.792 4.08007 53.2022 4.07973 53.63V95.5648C4.08007 95.9926 4.28923 96.4028 4.66127 96.7053C5.03331 97.0078 5.53781 97.1779 6.06396 97.1782H101.279C101.805 97.1779 102.31 97.0078 102.682 96.7053C103.054 96.4028 103.263 95.9926 103.263 95.5648V53.63C103.263 53.2022 103.054 52.792 102.682 52.4895C102.31 52.187 101.805 52.017 101.279 52.0167H6.06396Z" fill="#8C42C5"/>
<path d="M17.9655 71.3707H10.0311C9.77059 71.3708 9.5126 71.3292 9.27187 71.2483C9.03114 71.1673 8.81239 71.0486 8.62812 70.8988C8.44385 70.7491 8.29767 70.5713 8.19794 70.3756C8.09821 70.18 8.04687 69.9702 8.04688 69.7584V50.4033H12.0141V68.145H17.9655V71.3707Z" fill="#8C42C5"/>
<path d="M97.3118 71.3707H89.3774V68.145H95.3289V50.4033H99.296V69.7584C99.296 69.9702 99.2447 70.18 99.145 70.3756C99.0452 70.5713 98.8991 70.7491 98.7148 70.8988C98.5305 71.0486 98.3118 71.1673 98.071 71.2483C97.8303 71.3292 97.5723 71.3708 97.3118 71.3707Z" fill="#8C42C5"/>
<path d="M25.8998 77.8234H17.9654C17.7048 77.8235 17.4467 77.7819 17.2059 77.7008C16.9651 77.6198 16.7463 77.501 16.562 77.3511C16.3777 77.2013 16.2316 77.0234 16.1319 76.8276C16.0322 76.6318 15.981 76.4219 15.9812 76.21V63.3073C15.981 63.0954 16.0322 62.8856 16.1319 62.6898C16.2316 62.494 16.3777 62.316 16.562 62.1662C16.7463 62.0164 16.9651 61.8975 17.2059 61.8165C17.4467 61.7355 17.7048 61.6938 17.9654 61.694H25.8998C26.1604 61.6938 26.4185 61.7355 26.6593 61.8165C26.9001 61.8975 27.1189 62.0164 27.3032 62.1662C27.4875 62.316 27.6337 62.494 27.7333 62.6898C27.833 62.8856 27.8842 63.0954 27.884 63.3073V76.21C27.8842 76.4219 27.833 76.6318 27.7333 76.8276C27.6337 77.0234 27.4875 77.2013 27.3032 77.3511C27.1189 77.501 26.9001 77.6198 26.6593 77.7008C26.4185 77.7819 26.1604 77.8235 25.8998 77.8234ZM19.9484 74.5977H23.9156V64.9196H19.9484V74.5977Z" fill="#8C42C5"/>
<path d="M89.3773 77.8234H81.443C81.1823 77.8235 80.9243 77.7819 80.6834 77.7008C80.4426 77.6198 80.2238 77.501 80.0395 77.3511C79.8552 77.2013 79.7091 77.0234 79.6094 76.8276C79.5098 76.6318 79.4586 76.4219 79.4587 76.21V63.3073C79.4586 63.0954 79.5098 62.8856 79.6094 62.6898C79.7091 62.494 79.8552 62.316 80.0395 62.1662C80.2238 62.0164 80.4426 61.8975 80.6834 61.8165C80.9243 61.7355 81.1823 61.6938 81.443 61.694H89.3773C89.638 61.6938 89.896 61.7355 90.1369 61.8165C90.3777 61.8975 90.5965 62.0164 90.7808 62.1662C90.9651 62.316 91.1112 62.494 91.2109 62.6898C91.3105 62.8856 91.3617 63.0954 91.3616 63.3073V76.21C91.3617 76.4219 91.3105 76.6318 91.2109 76.8276C91.1112 77.0234 90.9651 77.2013 90.7808 77.3511C90.5965 77.501 90.3777 77.6198 90.1369 77.7008C89.896 77.7819 89.638 77.8235 89.3773 77.8234ZM83.4259 74.5977H87.3931V64.9196H83.4259V74.5977Z" fill="#8C42C5"/>
<path d="M25.8999 68.1451H81.443V71.3708H25.8999V68.1451Z" fill="#8C42C5"/>
<path d="M31.8515 50.4035H27.8843V39.1142C27.8841 38.9023 27.9353 38.6924 28.035 38.4966C28.1346 38.3008 28.2808 38.1229 28.4651 37.9731C28.6494 37.8232 28.8682 37.7044 29.109 37.6234C29.3498 37.5424 29.6079 37.5007 29.8685 37.5009H37.8029V40.7265H31.8515V50.4035Z" fill="#8C42C5"/>
<path d="M79.4589 50.4035H75.4917V40.7265H69.5403V37.5009H77.4746C77.7353 37.5007 77.9934 37.5424 78.2342 37.6234C78.475 37.7044 78.6938 37.8232 78.8781 37.9731C79.0624 38.1229 79.2085 38.3008 79.3082 38.4966C79.4078 38.6924 79.459 38.9023 79.4589 39.1142V50.4035Z" fill="#8C42C5"/>
</svg>
