<svg width="203" height="203" viewBox="0 0 203 203" fill="none" xmlns="http://www.w3.org/2000/svg">
<g clip-path="url(#clip0_98_2)">
<path d="M3.19238 28.228H199.811V34.567H3.19238V28.228Z" fill="#FFBA3F"/>
<path fill-rule="evenodd" clip-rule="evenodd" d="M18.8807 14.2036C20.5887 14.2036 21.9368 15.5977 21.9368 17.2597C21.9368 18.9678 20.5887 20.3618 18.8807 20.3618C17.1726 20.3618 15.823 18.9678 15.823 17.2597C15.823 15.5977 17.1726 14.2036 18.8807 14.2036ZM45.6703 14.2036C47.3784 14.2036 48.7264 15.5977 48.7264 17.2597C48.7264 18.9678 47.3784 20.3618 45.6703 20.3618C43.9607 20.3618 42.5682 18.9678 42.5682 17.2597C42.5698 15.5977 43.9623 14.2036 45.6703 14.2036ZM32.2755 14.2036C33.9836 14.2036 35.3316 15.5977 35.3316 17.2597C35.3316 18.9678 33.9836 20.3618 32.2755 20.3618C30.5675 20.3618 29.1734 18.9678 29.1734 17.2597C29.1734 15.5977 30.5675 14.2036 32.2755 14.2036Z" fill="#FFBA3F"/>
<path d="M180.118 14.1133C181.87 14.1133 183.264 15.5073 183.264 17.2598C183.264 19.0122 181.87 20.4523 180.118 20.4523H72.1918C70.4393 20.4523 68.9993 19.0138 68.9993 17.2598C68.9993 15.5073 70.4377 14.1133 72.1918 14.1133H180.118Z" fill="#FFBA3F"/>
<path d="M130.852 99.4764C130.852 93.453 133.641 89.5865 137.283 87.7896C138.72 87.1156 140.294 86.7556 141.911 86.7556C143.53 86.7556 145.102 87.1156 146.542 87.8341C150.228 89.6309 153.106 93.5434 153.106 99.4764V130.088C153.915 130.267 155.398 130.627 156.789 130.986C162.232 132.245 166.769 133.325 174.007 135.886C176.792 136.876 179.447 138.944 181.379 141.463C183.265 143.978 184.479 146.945 184.479 149.868V191.491C184.479 197.786 179.266 203 172.926 203H142.36C137.057 203 131.301 199.628 127.976 195.538L105.412 167.938C101.679 163.534 100.916 158.857 101.995 155.129C102.488 153.421 103.433 151.892 104.646 150.677C105.86 149.462 107.435 148.564 109.187 148.114C113.636 146.947 118.219 148.969 121.456 152.026L130.851 160.207V152.026V142.944L130.852 99.4764ZM140.024 93.499C138.451 94.3079 137.193 96.2411 137.193 99.478V142.945V152.028V167.221C137.193 167.94 136.923 168.706 136.381 169.289C135.26 170.593 133.235 170.728 131.933 169.603L117.321 156.794C115.118 155.041 111.702 152.612 109.097 155.175C106.578 157.647 108.332 161.602 110.264 163.85L132.694 191.359C133.955 193.023 138 196.664 142.358 196.664H172.924C175.801 196.664 178.094 194.327 178.094 191.494V149.868C178.094 148.339 177.422 146.722 176.342 145.281C175.127 143.708 173.511 142.449 171.89 141.867C165.06 139.439 160.609 138.405 155.306 137.146C154.408 136.92 153.506 136.697 151.26 136.156C149.909 135.842 148.788 135.078 148.023 134.088C147.215 133.055 146.763 131.796 146.763 130.447V99.4764C146.763 96.3299 145.462 94.3523 143.798 93.5434C143.167 93.2294 142.538 93.093 141.91 93.093C141.282 93.093 140.654 93.2294 140.024 93.499Z" fill="#FFBA3F"/>
<path d="M46.2095 49.4907H66.5714H86.846C88.914 49.4907 90.8457 50.3455 92.1953 51.738C93.5894 53.0876 94.4426 55.0193 94.4426 57.0874V115.524C94.4426 117.592 93.5878 119.524 92.1953 120.874V120.918C90.8457 122.268 88.914 123.123 86.846 123.123H25.9365C23.8224 123.123 21.9351 122.268 20.5427 120.918V120.874C19.1502 119.524 18.2954 117.592 18.2954 115.524V57.0874C18.2954 55.0193 19.1502 53.0876 20.5427 51.738C21.9351 50.344 23.824 49.4907 25.9365 49.4907H46.2095ZM64.1005 107.344C62.348 107.344 60.9095 105.906 60.9095 104.152C60.9095 102.398 62.348 101.005 64.1005 101.005H76.1932C77.9457 101.005 79.3397 102.398 79.3397 104.152C79.3397 105.906 77.9457 107.344 76.1932 107.344H64.1005ZM69.7194 55.8297V77.4508C69.7194 78.3944 69.4498 79.2937 68.955 80.0581C68.4602 80.8225 67.7418 81.4505 66.8425 81.8549C65.0901 82.6194 63.0664 82.3054 61.628 81.0017L56.5038 76.4168L51.0641 81.1809C49.6256 82.3942 47.6035 82.7082 45.8495 81.8994C44.9947 81.5393 44.3206 80.9113 43.7814 80.1469C43.2866 79.3381 43.017 78.4388 43.017 77.4952V55.8297H25.9365C25.5764 55.8297 25.2624 55.9645 25.0372 56.1897C24.812 56.4149 24.6772 56.7289 24.6772 57.089V115.526C24.6772 115.886 24.812 116.2 25.0372 116.425C25.2624 116.65 25.5764 116.785 25.9365 116.785H86.846C87.206 116.785 87.52 116.65 87.7452 116.425C87.9704 116.198 88.1052 115.884 88.1052 115.526V57.0874C88.1052 56.7274 87.9704 56.4133 87.7452 56.1881C87.52 55.9629 87.206 55.8281 86.846 55.8281L69.7194 55.8297ZM63.382 55.8297H49.3576V74.2139L53.3573 70.7534C54.2121 69.989 55.4698 69.5845 56.5942 69.5845C57.7171 69.5845 58.8859 69.989 59.7851 70.7994L63.382 74.0807V55.8297Z" fill="#FFBA3F"/>
<path d="M121.009 102.983C122.761 102.983 124.203 104.377 124.203 106.129C124.203 107.883 122.763 109.322 121.009 109.322H118.536C113.23 109.322 108.919 105.006 108.919 99.7015V83.249C108.919 77.944 113.277 73.6287 118.536 73.6287H173.827C179.086 73.6287 183.401 77.944 183.401 83.249V99.7015C183.401 105.006 179.086 109.322 173.827 109.322H164.476C162.723 109.322 161.285 107.885 161.285 106.129C161.285 104.377 162.722 102.983 164.476 102.983H173.827C175.623 102.983 177.064 101.5 177.064 99.7015V83.249C177.064 81.4505 175.623 79.9677 173.827 79.9677H118.536C116.739 79.9677 115.256 81.4505 115.256 83.249V99.7015C115.256 101.5 116.741 102.983 118.536 102.983H121.009Z" fill="#FFBA3F"/>
<path d="M21.4863 152.206C19.7339 152.206 18.2954 150.767 18.2954 149.013C18.2954 147.259 19.7339 145.867 21.4863 145.867H36.6352C38.3877 145.867 39.8277 147.261 39.8277 149.013C39.8277 150.766 38.3892 152.206 36.6352 152.206H21.4863ZM21.4863 138.809C19.7339 138.809 18.2954 137.371 18.2954 135.663C18.2954 133.91 19.7339 132.47 21.4863 132.47H62.5272C64.2797 132.47 65.6737 133.909 65.6737 135.663C65.6737 137.371 64.2813 138.809 62.5272 138.809H21.4863Z" fill="#FFBA3F"/>
<path d="M90.4413 162.498C92.1493 162.498 93.5878 163.937 93.5878 165.691C93.5878 167.445 92.1493 168.837 90.4413 168.837H9.03509C6.4278 168.837 4.17895 167.757 2.56129 166.005C0.943633 164.297 0 161.915 0 159.396V9.3047C0 4.22494 4.22494 0 9.3047 0H193.648C198.775 0 203 4.22494 203 9.3047V159.396C203 161.959 201.876 164.341 200.079 166.049C198.326 167.757 195.944 168.837 193.378 168.837C191.626 168.837 190.187 167.443 190.187 165.691C190.187 163.938 191.624 162.498 193.378 162.498C194.233 162.498 195.042 162.138 195.673 161.509C196.255 160.925 196.661 160.161 196.661 159.396V9.3047C196.661 7.68704 195.31 6.33741 193.648 6.33741H9.3047C7.68545 6.33741 6.33741 7.68704 6.33741 9.3047V159.396C6.33741 160.295 6.65142 161.149 7.19223 161.69C7.68704 162.184 8.31507 162.498 9.03509 162.498H90.4413Z" fill="#FFBA3F"/>
</g>
<defs>
<clipPath id="clip0_98_2">
<rect width="203" height="203" fill="white"/>
</clipPath>
</defs>
</svg>
