<svg width="230" height="230" viewBox="0 0 230 230" fill="none" xmlns="http://www.w3.org/2000/svg">
<g clip-path="url(#clip0_96_5)">
<path d="M218.159 0.156982H11.4821C5.20281 0.156982 0 5.35979 0 11.639V170.639C0 176.918 5.20281 182.121 11.4821 182.121H85.936L75.1716 202.304H63.6895C61.5815 202.304 60.1911 203.694 60.1911 205.802V226.345C60.1911 228.453 61.5815 229.843 63.6895 229.843H166.31C168.418 229.843 169.809 228.453 169.809 226.345V205.802C169.809 203.694 168.418 202.304 166.31 202.304H154.828L144.064 182.121H218.518C224.797 182.121 230 176.918 230 170.639V11.639C229.641 5.35979 224.438 0.156982 218.159 0.156982ZM162.812 209.256V222.846H67.1431V209.256C144.737 209.256 101.948 209.256 162.812 209.256ZM146.486 202.304H83.1552L93.9197 182.121H135.677L146.486 202.304ZM222.689 170.639C222.689 173.419 220.581 175.169 218.159 175.169C144.378 175.169 87.6853 175.169 11.4821 175.169C9.06006 175.169 6.95203 173.419 6.95203 170.639V145.253H222.689V170.639ZM222.689 138.659H6.95203V11.639C6.95203 9.21705 9.06006 7.10901 11.4821 7.10901H218.159C220.581 7.10901 222.689 9.21705 222.689 11.639V138.659Z" fill="#FE96A6"/>
<path d="M114.821 148.392C108.227 148.392 102.98 153.595 102.98 160.233C102.98 166.826 108.183 172.074 114.821 172.074C121.414 172.074 126.661 166.871 126.661 160.233C126.661 153.595 121.414 148.392 114.821 148.392ZM114.821 164.718C112.04 164.718 109.932 162.61 109.932 159.829C109.932 157.048 112.04 154.94 114.821 154.94C117.601 154.94 119.709 157.048 119.709 159.829C119.709 162.61 117.601 164.718 114.821 164.718Z" fill="#FE96A6"/>
<path d="M127.334 84.3439V42.5869C127.334 41.8692 126.975 41.1965 126.975 40.8377L113.385 17.5147C111.995 15.0927 109.214 13.3435 106.433 13.3435C84.1868 13.3435 64.6762 13.3435 39.6489 13.3435C36.8681 13.3435 34.0873 14.7339 32.6969 17.5147L19.1068 40.8377C18.748 41.1965 18.748 41.8692 18.748 42.5869V102.778C18.434 108.384 23.3229 113.228 28.8845 113.228H90.1072C90.466 113.228 90.466 113.228 90.466 113.228C92.888 125.069 103.338 133.771 115.852 133.771C130.115 133.771 141.956 121.93 141.956 107.667C141.956 97.5752 136.035 88.5151 127.334 84.3439ZM106.478 20.3404C106.837 20.3404 107.51 20.3404 107.51 21.0132L118.274 39.0884H93.202L87.6852 20.3404H106.478ZM65.7527 20.3404H80.3743L85.936 39.1333H60.191L65.7527 20.3404ZM59.1594 46.0853H87.0124V58.285H59.1594V46.0853ZM38.6173 21.0132C38.9761 20.6543 39.335 20.2955 39.6489 20.2955H58.4418L52.8802 39.0884H27.8529L38.6173 21.0132ZM90.1072 106.321H28.8845C26.7765 106.321 25.386 104.572 25.386 102.823V46.0853H52.1626V61.7386C52.1626 63.8466 53.553 65.237 55.661 65.237H90.466C92.574 65.237 93.9644 63.8466 93.9644 61.7386V46.0853H120.741V81.9219C119.351 81.5631 117.601 81.2491 116.211 81.2491C102.307 81.2491 90.8248 92.3724 90.1072 106.321ZM116.211 126.819C105.76 126.819 97.0592 118.117 97.0592 107.667C97.0592 97.2164 105.76 88.5151 116.211 88.5151C117.96 88.5151 119.709 88.8739 121.1 89.2327C123.073 89.7261 124.778 90.5783 125.989 91.3408C131.505 94.4355 135.363 100.715 135.363 107.667C135.363 118.117 126.661 126.819 116.211 126.819Z" fill="#FE96A6"/>
<path d="M129.756 99.3243C128.411 97.9339 126.303 97.9339 124.912 99.3243L111.681 111.479L106.792 104.527C105.761 102.778 103.653 102.419 101.903 103.496C100.154 104.527 99.7954 106.635 100.872 108.384L107.824 118.835C108.541 119.552 109.214 120.225 110.246 120.225H110.605C111.322 120.225 112.354 119.866 113.027 119.194L129.398 104.213C130.788 102.823 130.788 100.715 129.756 99.3243Z" fill="#FE96A6"/>
<path d="M211.207 26.2158H147.517C145.409 26.2158 144.019 27.6062 144.019 29.7143C144.064 31.4635 145.454 33.2127 147.517 33.2127H211.207C213.315 33.2127 214.705 31.8223 214.705 29.7143C214.705 27.6062 213.315 26.2158 211.207 26.2158Z" fill="#FE96A6"/>
<path d="M211.207 48.1484H147.517C145.409 48.1484 144.019 49.5388 144.019 51.6469C144.064 53.7549 145.454 55.1453 147.517 55.1453H211.207C213.315 55.1453 214.705 53.7549 214.705 51.6469C214.705 49.5388 213.315 48.1484 211.207 48.1484Z" fill="#FE96A6"/>
<path d="M211.207 70.3948H147.517C145.409 70.3948 144.019 71.7852 144.019 73.8932C144.064 76.0013 145.454 77.3917 147.517 77.3917H211.207C213.315 77.3917 214.705 76.0013 214.705 73.8932C214.705 71.7852 213.315 70.3948 211.207 70.3948Z" fill="#FE96A6"/>
<path d="M210.848 92.7312H151.016C148.908 92.7312 147.518 94.1216 147.518 96.2296C147.518 98.3377 148.908 99.7281 151.016 99.7281H211.207C213.315 99.7281 214.706 98.3377 214.706 96.2296C214.347 94.1216 212.956 92.7312 210.848 92.7312Z" fill="#FE96A6"/>
<path d="M210.848 114.978H151.016C148.908 114.978 147.518 116.368 147.518 118.476C147.518 120.584 148.908 121.974 151.016 121.974H211.207C213.315 121.974 214.706 120.584 214.706 118.476C214.347 116.368 212.956 114.978 210.848 114.978Z" fill="#FE96A6"/>
</g>
<defs>
<clipPath id="clip0_96_5">
<rect width="230" height="230" fill="white"/>
</clipPath>
</defs>
</svg>
