<svg width="98" height="102" viewBox="0 0 98 102" fill="none" xmlns="http://www.w3.org/2000/svg">
<path d="M31.0215 18.2155C31.0215 20.289 31.3745 22.2805 32.0155 24.1388C32.0379 24.2295 32.0673 24.3172 32.1044 24.401C34.6425 31.4092 41.3637 36.4308 49.237 36.4308C57.1109 36.4308 63.8325 31.4084 66.37 24.3994C66.4065 24.317 66.4354 24.2307 66.4575 24.1414C67.0991 22.2822 67.4525 20.2898 67.4525 18.2153C67.4525 16.4627 67.1987 14.7689 66.7344 13.1638C66.7177 13.0761 66.6928 12.9914 66.6619 12.9094C64.385 5.44581 57.4361 0 49.2372 0C41.0378 0 34.0886 5.4466 31.8119 12.911C31.7817 12.9923 31.7568 13.0761 31.7402 13.1632C31.2755 14.7685 31.0215 16.4625 31.0215 18.2155ZM49.237 3.16788C49.944 3.16788 51.154 4.17656 52.2368 7.01908C52.7761 8.43491 53.1984 10.0829 53.4938 11.8798H44.98C45.2756 10.0831 45.6977 8.43511 46.237 7.01908C47.32 4.17656 48.53 3.16788 49.237 3.16788ZM53.8707 15.0476C53.9487 16.0779 53.989 17.1377 53.989 18.2155C53.989 19.5719 53.9252 20.8994 53.8023 22.1754H44.6719C44.5492 20.8994 44.4852 19.5719 44.4852 18.2155C44.4852 17.1377 44.5255 16.0779 44.6035 15.0476H53.8707ZM64.2846 18.2155C64.2846 19.5859 64.097 20.9128 63.7521 22.1754H56.9817C57.0978 20.8725 57.1569 19.5428 57.1569 18.2155C57.1569 17.1561 57.1192 16.0952 57.0451 15.0476H63.9464C64.1661 16.0696 64.2846 17.1288 64.2846 18.2155ZM49.237 33.2632C48.5298 33.2632 47.32 32.2545 46.2372 29.412C45.7781 28.2069 45.4046 26.833 45.1207 25.3433H53.3533C53.0696 26.8328 52.6959 28.2069 52.2368 29.412C51.154 32.2545 49.9442 33.2632 49.237 33.2632ZM41.4925 22.1754H34.7222C34.3772 20.9128 34.1896 19.5859 34.1896 18.2155C34.1896 17.1288 34.3081 16.0696 34.528 15.0476H41.4293C41.3552 16.0952 41.3175 17.1561 41.3175 18.2155C41.3173 19.5428 41.3762 20.8725 41.4925 22.1754ZM35.9882 25.3433H41.8999C42.3554 28.0113 43.0763 30.4416 44.0543 32.343C40.5915 31.0686 37.7233 28.5552 35.9882 25.3433ZM54.4197 32.343C55.3979 30.4418 56.1186 28.0115 56.5741 25.3433H62.4858C60.7507 28.5552 57.8825 31.0686 54.4197 32.343ZM62.8811 11.8798H56.7006C56.2577 8.90172 55.4938 6.17595 54.4197 4.08806C58.1618 5.46517 61.2076 8.2905 62.8811 11.8798ZM44.0543 4.08806C42.9803 6.17595 42.2163 8.90172 41.7734 11.8798H35.5931C37.2666 8.2905 40.3122 5.46517 44.0543 4.08806ZM75.7928 29.0937C75.1944 28.4953 74.3989 28.1658 73.5528 28.1658C72.7065 28.1658 71.911 28.4953 71.3128 29.0937L63.237 37.1693C62.6387 37.7677 62.3092 38.5632 62.3092 39.4093C62.3092 40.2556 62.6387 41.0511 63.237 41.6493L65.1232 43.5355L63.4012 45.2573C62.6286 46.0299 61.5308 46.3478 60.4652 46.1077L55.6129 45.0153C52.6319 44.3444 49.5898 44.7654 46.9729 46.1348C44.7942 45.3478 42.4613 45.1726 40.1735 45.6346L37.5127 46.1716C36.4697 46.3821 35.3984 46.0586 34.6461 45.3063L32.8755 43.5357L34.7617 41.6495C35.36 41.0511 35.6895 40.2556 35.6895 39.4095C35.6895 38.5634 35.36 37.7679 34.7617 37.1695L26.6861 29.0939C26.0877 28.4955 25.2922 28.166 24.4461 28.166C23.5998 28.166 22.8043 28.4955 22.2061 29.0939L0.926205 50.3738C-0.308866 51.6089 -0.308669 53.6187 0.926402 54.8538L9.00217 62.9296C9.61971 63.5471 10.4308 63.8559 11.2422 63.8559C12.0533 63.8559 12.8646 63.5471 13.4824 62.9296L15.3686 61.0434L18.3421 64.0169C19.0447 64.7196 19.3794 65.7261 19.2373 66.7095C19.0376 68.0927 19.0799 69.0664 19.4345 70.2142L16.2255 73.4227C13.9389 75.7092 13.9389 79.4296 16.2255 81.716C17.0365 82.5269 18.0281 83.0489 19.0718 83.2845C18.1649 85.421 18.5795 87.9897 20.3189 89.7291C21.4621 90.8724 22.9639 91.4441 24.4656 91.4441C24.9801 91.4441 25.4943 91.3753 25.9943 91.2412C26.1739 92.4389 26.723 93.5914 27.6432 94.5116C28.7864 95.6548 30.2882 96.2265 31.7899 96.2265C32.2532 96.2265 32.7166 96.1718 33.1694 96.0627C33.3334 97.295 33.8867 98.4851 34.8316 99.43C35.9748 100.573 37.4766 101.145 38.9781 101.145C40.4799 101.145 41.9817 100.573 43.1249 99.43L44.7264 97.8284L44.8526 97.9547C46.043 99.1451 47.6064 99.7403 49.1704 99.7403C50.734 99.7403 52.298 99.1451 53.4882 97.9547C54.2972 97.1457 54.8499 96.1495 55.1087 95.0641C56.0149 95.5564 57.0196 95.8038 58.0251 95.8038C59.5887 95.8036 61.1527 95.2083 62.3429 94.0181C63.3094 93.0517 63.9103 91.818 64.0802 90.484C64.6754 90.6576 65.2904 90.7445 65.9026 90.7445C67.4658 90.7445 69.0092 90.177 70.1512 89.035C70.3845 88.8017 70.5376 88.5028 70.5926 88.1818C71.2747 87.2598 71.6787 86.1701 71.7636 85.017C72.1439 85.0901 72.5337 85.1283 72.9296 85.1283C74.5605 85.1283 76.0941 84.4931 77.2474 83.3397C78.4007 82.1864 79.036 80.6528 79.036 79.0218C79.036 77.3909 78.4008 75.8573 77.2474 74.704L76.7663 74.223C78.407 72.11 79.147 69.3829 78.761 66.7095C78.6189 65.7261 78.9536 64.7194 79.6563 64.0167L82.63 61.0432L84.5163 62.9296C85.1339 63.5471 85.945 63.8559 86.7563 63.8559C87.5675 63.8559 88.3788 63.5471 88.9963 62.9296L97.0719 54.854C97.6703 54.2556 98 53.4601 98 52.6138C98 51.7677 97.6705 50.9722 97.0721 50.3738L75.7928 29.0937ZM11.2422 60.689L3.1664 52.6132L24.4461 31.3335L32.523 39.4075L32.5217 39.4089L32.5215 39.4091L11.2422 60.689ZM18.4655 75.6627L22.3886 71.7396C22.393 71.7353 22.3975 71.7309 22.4017 71.7266L22.695 71.4332C23.2207 70.9075 23.9111 70.6448 24.6016 70.6448C25.2922 70.6448 25.9826 70.9075 26.5083 71.4332C27.5597 72.4846 27.5597 74.1951 26.5083 75.2465L22.2786 79.4762C21.2272 80.5274 19.5169 80.5274 18.4653 79.4762C17.4144 78.4249 17.4144 76.7141 18.4655 75.6627ZM24.4656 88.2789C23.7454 88.2789 23.0682 87.9984 22.5591 87.4892C22.0498 86.9799 21.7693 86.3027 21.7693 85.5826C21.7693 84.8624 22.0498 84.1852 22.5591 83.6759L24.5188 81.7162L28.7485 77.4865L29.8834 76.3516C30.4091 75.8259 31.0995 75.5632 31.7901 75.5632C32.4806 75.5632 33.171 75.8259 33.6967 76.3516C34.748 77.4029 34.748 79.1135 33.6967 80.1649L31.8071 82.0542C31.8063 82.055 31.8056 82.0556 31.805 82.0564L27.6434 86.2179C27.6426 86.2187 27.642 86.2195 27.6412 86.2201L26.3724 87.489C25.8631 87.9984 25.1859 88.2789 24.4656 88.2789ZM29.8832 92.2714C28.8323 91.2204 28.8321 89.5107 29.8822 88.4593L34.0461 84.2954C34.5716 83.7705 35.2617 83.508 35.9517 83.508C36.6421 83.508 37.3326 83.7707 37.8582 84.2964C38.9096 85.3477 38.9096 87.0583 37.8582 88.1096L33.6967 92.2712C32.6451 93.3227 30.9348 93.3227 29.8832 92.2714ZM40.8849 97.1898C39.8333 98.2413 38.1229 98.2411 37.0716 97.1898C36.0202 96.1384 36.0202 94.4278 37.0716 93.3765L38.9633 91.4848C39.489 90.9591 40.1794 90.6963 40.8701 90.6963C41.5603 90.6963 42.2511 90.9593 42.7766 91.4848C43.8277 92.5361 43.8277 94.2467 42.7766 95.298L40.8849 97.1898ZM75.0078 81.0995C74.4529 81.6544 73.7148 81.9602 72.9299 81.9602C72.1451 81.9602 71.4071 81.6544 70.8521 81.0995C70.7526 80.9999 70.6423 80.9181 70.5262 80.8507C70.362 80.637 70.184 80.4315 69.99 80.2375L61.8374 72.1347C61.2169 71.518 60.214 71.5209 59.5974 72.1416C58.9807 72.7621 58.9838 73.7651 59.6043 74.3816L67.7536 82.4811C68.3085 83.036 68.6143 83.7741 68.6143 84.5589C68.6143 85.3438 68.3085 86.0818 67.7536 86.6367C67.594 86.7963 67.4721 86.9864 67.3933 87.1932C66.2518 87.8586 64.6207 87.6594 63.598 86.6367C63.5835 86.6223 63.5687 86.6081 63.5537 86.5943L62.8074 85.9036C62.6632 85.7227 62.5093 85.548 62.3433 85.3821C62.2155 85.2543 62.0705 85.1543 61.9166 85.0793L53.8768 77.6394C53.2348 77.0452 52.2326 77.0839 51.6384 77.7261C51.0442 78.3682 51.0831 79.3703 51.7251 79.9645L60.4437 88.0326C60.7809 88.5194 60.9641 89.0952 60.9641 89.6999C60.9641 90.4848 60.6583 91.2228 60.1033 91.7777C58.9576 92.9235 57.0935 92.9235 55.9477 91.7777L48.0812 83.9112C47.4626 83.2926 46.4597 83.2926 45.8412 83.9112C45.2224 84.5297 45.2224 85.5326 45.8412 86.1512L51.2477 91.5577C51.2481 91.5581 51.2482 91.5584 51.2486 91.5588C51.8036 92.1138 52.1094 92.8518 52.1094 93.6367C52.1094 94.4215 51.8036 95.1596 51.2486 95.7145C50.1031 96.86 48.2386 96.86 47.093 95.7145L46.4784 95.0999C47.0855 93.095 46.5988 90.8267 45.0168 89.245C44.0954 88.3234 42.921 87.7479 41.6504 87.58C42.1109 85.6602 41.5939 83.552 40.0984 82.0566C39.2782 81.2365 38.2735 80.7123 37.2166 80.4805C38.0819 78.3595 37.6553 75.8304 35.9367 74.1118C34.4406 72.6157 32.331 72.0992 30.4107 72.5606C30.2467 71.3283 29.6936 70.1383 28.7485 69.1934C27.0055 67.4505 24.4299 67.0378 22.2908 67.952C22.3017 67.7169 22.33 67.4601 22.373 67.1618C22.6569 65.1948 21.9874 63.1816 20.5822 61.7765L17.6088 58.8028L30.6359 45.7755L32.4065 47.5461C33.9108 49.0504 36.0546 49.6974 38.1395 49.2766L40.8003 48.7397C41.7596 48.5461 42.7294 48.5018 43.6835 48.6032L39.182 53.1045C37.4821 54.8044 37.0704 57.387 38.1573 59.5309L42.55 68.1976C42.934 68.9554 43.5907 69.5168 44.3987 69.7788C44.7205 69.8831 45.0506 69.9348 45.3791 69.9348C45.8757 69.9348 46.3688 69.8165 46.8236 69.583L47.1815 69.3991C50.9551 67.4599 52.6498 63.0123 51.1236 59.0539L51.1165 59.0353L54.4477 56.384L75.0076 76.9438C76.1535 78.0894 76.1535 79.9537 75.0078 81.0995ZM77.4169 61.7763C76.0115 63.1816 75.3422 65.1949 75.6261 67.1616C75.8699 68.8495 75.4538 70.569 74.5013 71.9571L55.701 53.1569C55.7 53.1559 55.699 53.1549 55.698 53.1539L55.6877 53.1436C55.6769 53.1328 55.665 53.1237 55.654 53.113C55.6273 53.0877 55.6006 53.0624 55.5726 53.0393C55.5587 53.0281 55.5443 53.0182 55.5301 53.0073C55.5026 52.9862 55.4752 52.965 55.4465 52.9459C55.4284 52.9338 55.4096 52.9234 55.3912 52.9121C55.3657 52.8965 55.3405 52.8807 55.3142 52.8667C55.2921 52.8548 55.2691 52.8447 55.2464 52.8341C55.2229 52.823 55.1998 52.8111 55.1757 52.8013C55.1504 52.7908 55.1247 52.7821 55.099 52.773C55.0769 52.7651 55.0548 52.7566 55.0325 52.7497C55.0058 52.7416 54.9787 52.7353 54.9519 52.7286C54.9294 52.723 54.9072 52.7167 54.8845 52.7122C54.8582 52.7068 54.8318 52.7033 54.8053 52.6993C54.7814 52.6958 54.7575 52.6914 54.7336 52.6891C54.7085 52.6865 54.6832 52.6855 54.6581 52.6841C54.6324 52.6825 54.6068 52.6806 54.5811 52.6804C54.5576 52.6802 54.5339 52.6818 54.5104 52.6825C54.4831 52.6835 54.4556 52.6841 54.4284 52.6865C54.4059 52.6885 54.3833 52.692 54.361 52.695C54.3332 52.6987 54.3051 52.7019 54.2774 52.707C54.2543 52.7114 54.2314 52.7173 54.2085 52.7226C54.182 52.7288 54.1554 52.7345 54.1293 52.742C54.1042 52.7491 54.0797 52.7582 54.055 52.7667C54.0315 52.7748 54.0078 52.7821 53.9845 52.7914C53.9564 52.8025 53.9294 52.8157 53.9019 52.8283C53.8827 52.8372 53.8632 52.8453 53.8442 52.855C53.8138 52.8708 53.7842 52.8886 53.7545 52.9066C53.7391 52.9159 53.7235 52.9241 53.7083 52.9338C53.6787 52.953 53.6504 52.9743 53.622 52.9957C53.6089 53.0055 53.5951 53.0138 53.5821 53.0241L53.5696 53.034C53.5692 53.0344 53.5686 53.0348 53.5682 53.0352L48.2346 57.2803C47.6932 57.7111 47.4942 58.4436 47.7431 59.0894L48.1687 60.1931C49.1112 62.6374 48.0648 65.3837 45.7345 66.581L45.3765 66.7652L40.9838 58.0985C40.518 57.1795 40.6946 56.0729 41.423 55.3443L46.1102 50.6571C46.5855 50.1818 47.1035 49.7673 47.6515 49.4096C47.8702 49.3367 48.0713 49.2164 48.2412 49.0552C50.2477 47.9436 52.6068 47.5852 54.9181 48.1055L59.7705 49.198C61.902 49.6776 64.0972 49.0419 65.6422 47.4971L67.3642 45.7751L80.3913 58.8024L77.4169 61.7763ZM86.7567 60.689L83.7514 57.6837C83.751 57.6833 83.7508 57.6831 83.7506 57.6827C83.7503 57.6823 83.7501 57.6821 83.7497 57.6819L68.4835 42.4158L68.4833 42.4156C68.4833 42.4156 68.4831 42.4156 68.4831 42.4154L65.4771 39.4093L73.5528 31.3337L94.8325 52.6134L86.7567 60.689Z" fill="#FFBA3F"/>
</svg>
