<svg width="1877" height="763" viewBox="0 0 1877 763" fill="none" xmlns="http://www.w3.org/2000/svg">
<path opacity="0.38" d="M-378.847 762.031C-361.567 641.04 -52.3325 632.767 -40.1368 405.048C-14.4797 -74.0233 826.171 929.781 895.52 657.744C1033.97 114.658 2582.22 177.078 2616.09 90.4356M-317.91 349.343C-274.035 458.248 -134.879 636.977 70.7543 480.652C327.796 285.246 462.38 -95.1438 769.576 23.5662C1076.77 142.276 1421.8 604.142 1579.73 306.443M-376.182 727.167C-357.635 617.123 -56.4999 617.757 -35.0923 393.434C1.58257 -72.1292 808.611 865.762 889.286 612.331C1035.77 100.759 2526.72 182.202 2566.51 85.5089M-373.515 692.305C-353.702 593.208 -60.6672 602.746 -30.0468 381.824C17.6459 -70.2322 791.052 801.742 883.053 566.92C1037.57 86.8649 2471.23 187.33 2516.92 80.5834M-370.85 657.439C-349.771 569.291 -64.8326 587.733 -25.0034 370.21C33.7082 -68.3371 773.493 737.726 876.82 521.51C1039.37 72.9681 2415.73 192.451 2467.33 75.6617M-368.184 622.579C-345.838 545.377 -69 572.725 -19.9589 358.603C49.7716 -66.4371 755.934 673.711 870.587 476.104C1041.18 59.0763 2360.24 197.58 2417.74 70.7371M-365.518 587.712C-341.906 521.458 -73.1664 557.711 -14.9105 346.985C65.8378 -64.547 738.377 609.688 864.357 430.687C1042.98 45.1744 2304.75 202.699 2368.16 65.8005M-362.852 552.853C-337.974 497.547 -77.3327 542.704 -9.86893 335.381C81.8983 -62.643 720.815 545.677 858.12 385.284C1044.78 31.2856 2249.25 207.831 2318.57 60.8869M-360.187 517.985C-334.042 473.625 -81.5031 527.687 -4.82556 323.763C97.9595 -60.7529 703.255 481.654 851.886 339.868C1046.58 17.3838 2193.76 212.95 2268.98 55.9554M-357.521 483.121C-330.109 449.709 -85.6665 512.676 0.218877 312.152C114.022 -58.8568 685.696 417.636 845.653 294.457C1048.38 3.48697 2138.27 218.075 2219.4 51.0298M-354.855 448.257C-326.177 425.793 -89.8329 497.664 5.26435 300.54C130.086 -56.9608 668.137 353.618 839.421 249.046C1050.19 -10.4098 2082.77 223.199 2169.81 46.1042M-352.189 413.393C-322.245 401.876 -94.0003 482.652 10.3089 288.93C146.149 -55.0628 650.577 289.602 833.183 203.637C1051.99 -24.3057 2027.28 228.324 2120.22 41.1785M-349.524 378.53C-318.314 377.961 -98.1676 467.641 15.3493 277.318C162.212 -53.1717 633.018 225.583 826.953 158.226C1053.79 -38.2015 1971.78 233.449 2070.64 36.2579M-346.857 343.666C-314.381 354.044 -102.338 452.63 20.3977 265.706C178.274 -51.2707 615.456 161.566 820.724 112.815C1055.59 -52.0983 1916.29 238.574 2021.05 31.3293M-344.059 317.405C-310.316 338.73 -106.367 446.221 25.5757 262.697C194.467 -40.7699 598.032 106.153 814.62 76.0098C1057.53 -57.3896 1860.93 252.304 1971.6 35.0074M-340.987 308.692C-305.982 340.965 -110.129 457.361 31.0259 277.235C210.939 -12.7253 580.879 68.2815 808.793 56.7447C1059.74 -45.1398 1805.84 283.574 1922.42 56.2274M-337.856 303.773C-301.581 346.993 -113.83 472.293 36.535 295.569C213.911 38.743 516.758 33.536 750.382 39.756C768.561 40.2397 786.035 40.7819 803.022 41.2848C1062 -29.0857 1750.81 318.649 1873.29 81.2526M-334.583 308.172C-297.038 362.339 -117.389 496.545 42.1876 323.221C244.14 60.2753 546.834 9.45613 797.4 35.1347C1064.42 -3.72588 1695.93 363.035 1824.32 115.583M-331.25 316.274C-292.441 381.39 -120.888 524.499 47.8997 354.574C260.868 105.136 529.941 -11.5968 791.832 32.6885C1066.89 25.3468 1641.1 411.124 1775.4 153.626M-327.915 324.498C-287.844 400.56 -124.386 552.575 53.6126 386.05C277.599 150.12 513.051 -32.5275 786.269 30.3645C1069.36 54.5367 1586.28 459.334 1726.48 191.787M-324.58 332.763C-283.238 419.774 -127.884 580.693 59.3262 417.568C294.332 195.145 496.16 -53.4164 780.705 28.0841C1071.83 83.7702 1531.45 507.589 1677.56 229.992M-321.245 341.048C-278.637 439.001 -131.381 608.83 65.0412 449.104C311.064 240.19 479.271 -74.2856 775.141 25.8227C1074.3 113.024 1476.63 555.863 1628.65 268.215" stroke="white"/>
</svg>
