<?xml version="1.0"?>
<svg xmlns="http://www.w3.org/2000/svg" id="Layer_1" data-name="Layer 1" viewBox="0 0 512 512" width="512" height="512"><title>Automobile Services</title><path d="M401.5,256.83V167.37A70,70,0,0,1,356,101.78c0-1.04.02-2.08.07-3.11a70.006,70.006,0,0,1,38.81-59.61v.01l-.13,38.86,31.44,21.99,31.03-20.66V39.11a70.027,70.027,0,0,1-6.72,128.26V344.63a70.027,70.027,0,0,1,6.62,128.31v-.01l.13-38.86-31.44-21.99-31.03,20.66v40.15a70.022,70.022,0,0,1-6.02-121.95,68.991,68.991,0,0,1,12.74-6.31v-87.8Z" style="fill:#e2d574"/><path d="M401.5,296.77v47.86a68.991,68.991,0,0,0-12.74,6.31H60.51a19.355,19.355,0,0,1-19.29-19.3L29.89,242.16c0-19.92,13.89-37.95,33.79-37.99l-.08.15H401.5v52.51a20,20,0,0,0,0,39.94Zm-62.88-12.18-6.39-18.78c-3.42-10.05-14.9-18.27-25.51-18.27H184.78c-10.62,0-22,8.26-25.29,18.34l-6.11,18.71ZM109.41,276.8a20,20,0,1,0-20,20A20,20,0,0,0,109.41,276.8Z" style="fill:#e48e66"/><path d="M401.5,256.83v39.94a20,20,0,0,1,0-39.94Z" style="fill:#6fe3ff"/><path d="M63.68,204.17l3.43-6.07,17.35-30.75,18.43-32.65c10.11-20.84,26.23-38.43,47.88-38.43H342.85a36.8,36.8,0,0,1,13.22,2.4c-.05,1.03-.07,2.07-.07,3.11a70,70,0,0,0,45.5,65.59v36.95H375V203a40,40,0,0,0-80,0v1.32H63.6Z" style="fill:#f8ec7d"/><path d="M375,203v1.32H295V203a40,40,0,0,1,80,0Z" style="fill:#6fe3ff"/><path d="M332.23,265.81l6.39,18.78H153.38l6.11-18.71c3.29-10.08,14.67-18.34,25.29-18.34H306.72C317.33,247.54,328.81,255.76,332.23,265.81Z" style="fill:#f8ec7d"/><path d="M111.67,352.51v33.57a9.649,9.649,0,0,1-9.65,9.65H72.73a9.649,9.649,0,0,1-9.65-9.65V350.94h48.59Z" style="fill:#f8ec7d"/><circle cx="89.41" cy="276.8" r="20" style="fill:#6fe3ff"/><path d="M84.46,167.35,67.11,198.1l-.03-.02L16,198.15a64.35,64.35,0,0,1,3.09-15.44c3.08-9.26,13.5-15.43,26.24-15.43s39.09.05,39.09.05Z" style="fill:#6fe3ff"/><path d="M363.06,316.29H134.61a7,7,0,0,1,0-14H363.06a7,7,0,0,1,0,14Z" style="fill:#6fe3ff"/></svg>
