<svg width="126" height="109" viewBox="0 0 126 109" fill="none" xmlns="http://www.w3.org/2000/svg">
<path d="M118.059 46.9136H111.72C111.359 45.6989 110.582 44.6265 109.507 43.8586C108.432 43.0906 107.117 42.6688 105.761 42.657H98.995V27.2784C99.0023 26.9905 98.9269 26.7059 98.7766 26.454C98.6263 26.202 98.4066 25.9919 98.1399 25.845L50.4077 0.221764C50.1387 0.0765121 49.8332 0 49.5221 0C49.211 0 48.9055 0.0765121 48.6365 0.221764L0.885068 25.845C0.615021 25.9906 0.391027 26.1997 0.235649 26.4514C0.0802708 26.703 -0.00100441 26.9883 9.3691e-06 27.2784V78.5249C7.98018e-05 78.8154 0.0823914 79.1008 0.238681 79.3524C0.39497 79.604 0.619737 79.813 0.890412 79.9584L48.6451 105.582C48.9158 105.727 49.2229 105.803 49.5355 105.803C49.8562 105.803 50.1716 105.727 50.4515 105.582L75.5806 92.1114V101.846C75.578 102.774 75.7733 103.692 76.1552 104.548C76.537 105.405 77.0979 106.182 77.8053 106.836C78.5127 107.49 79.3526 108.006 80.2764 108.356C81.2001 108.706 82.1894 108.882 83.1869 108.875H118.058C119.058 108.883 120.05 108.707 120.976 108.358C121.903 108.009 122.746 107.493 123.458 106.84C124.169 106.186 124.735 105.409 125.122 104.552C125.509 103.695 125.71 102.776 125.714 101.846V54.052C125.712 52.1634 124.906 50.3521 123.472 49.0143C122.037 47.6765 120.091 46.9212 118.059 46.9136ZM105.822 45.9679C106.508 45.9679 107.166 46.2211 107.651 46.6717C108.135 47.1224 108.408 47.7336 108.408 48.3709V48.5308C108.408 48.8465 108.341 49.159 108.211 49.4507C108.081 49.7424 107.891 50.0074 107.651 50.2306C107.411 50.4539 107.126 50.631 106.812 50.7518C106.498 50.8726 106.162 50.9348 105.822 50.9348H95.4719C94.7865 50.9343 94.1294 50.6809 93.6449 50.2303C93.1605 49.7797 92.8884 49.1688 92.8884 48.5318V48.3719C92.8884 47.7346 93.1608 47.1233 93.6457 46.6727C94.1306 46.2221 94.7883 45.9689 95.474 45.9689L105.822 45.9679ZM49.5365 3.56747L69.3798 14.2145L25.19 37.9235L5.34456 27.2775L49.5365 3.56747ZM47.8434 101.28L3.56269 77.5693V30.1424L47.8434 53.8543V101.28ZM49.5365 50.9864L28.7537 39.8348L72.9425 16.1258L93.7264 27.2775L49.5365 50.9864ZM75.5816 54.052V88.2878L51.4061 101.28V53.8543L95.4313 30.1424V42.6589H95.4869C94.1309 42.6708 92.816 43.0926 91.7409 43.8606C90.6657 44.6285 89.8889 45.7009 89.5277 46.9156H83.189C81.162 46.9245 79.2217 47.6814 77.7951 49.0197C76.3684 50.358 75.5722 52.1682 75.5816 54.052ZM122.152 101.848C122.149 102.343 122.041 102.833 121.834 103.288C121.626 103.744 121.323 104.157 120.942 104.503C120.561 104.848 120.11 105.12 119.615 105.303C119.12 105.485 118.591 105.575 118.059 105.566H83.188C82.6582 105.574 82.132 105.484 81.6403 105.3C81.1486 105.117 80.7012 104.844 80.3246 104.498C79.9479 104.151 79.6494 103.739 79.4467 103.284C79.2441 102.829 79.1412 102.341 79.1443 101.848V54.052C79.1388 53.5538 79.2391 53.0595 79.4394 52.5973C79.6398 52.1352 79.9362 51.7143 80.3119 51.3588C80.6875 51.0032 81.1348 50.7201 81.6284 50.5254C82.1219 50.3308 82.6519 50.2285 83.188 50.2245H89.6014C89.9835 51.3963 90.7639 52.4215 91.8258 53.1463C92.8876 53.8711 94.1737 54.2565 95.4911 54.2447H105.766C107.083 54.2565 108.369 53.8711 109.431 53.1463C110.493 52.4215 111.273 51.3963 111.655 50.2245H118.069C119.156 50.2311 120.197 50.6372 120.964 51.3542C121.731 52.0713 122.161 53.0411 122.162 54.052L122.152 101.848Z" fill="#FFBA3F"/>
<path d="M85.2392 70.8015H87.1055C87.5704 70.7909 88.0124 70.6118 88.3372 70.3025C88.662 69.9932 88.8438 69.5782 88.8438 69.146C88.8438 68.7138 88.662 68.2988 88.3372 67.9895C88.0124 67.6802 87.5704 67.5011 87.1055 67.4905H87.035V62.9975H91.952C92.0631 63.3306 92.2892 63.6205 92.5951 63.8224C92.9011 64.0244 93.2701 64.1272 93.6451 64.115C94.1183 64.1164 94.5727 63.9432 94.9086 63.6334C95.2444 63.3237 95.4344 62.9028 95.4366 62.463V61.3495C95.4327 60.906 95.24 60.4821 94.9007 60.1703C94.5614 59.8585 94.103 59.6842 93.6259 59.6856H85.2339C84.763 59.6892 84.3129 59.8664 83.9824 60.1782C83.652 60.49 83.4681 60.9109 83.4712 61.3485V69.1475C83.4698 69.3641 83.5145 69.5789 83.6027 69.7795C83.6909 69.98 83.8209 70.1624 83.9852 70.3161C84.1495 70.4698 84.3449 70.5918 84.5601 70.6751C84.7753 70.7584 85.0061 70.8013 85.2392 70.8015Z" fill="#FFBA3F"/>
<path d="M85.2521 85.9375H93.6505C94.1231 85.9375 94.5763 85.763 94.9105 85.4524C95.2447 85.1419 95.4324 84.7207 95.4324 84.2815V76.4765C95.4323 76.259 95.386 76.0437 95.2963 75.8429C95.2067 75.642 95.0753 75.4595 94.9097 75.3059C94.7442 75.1522 94.5477 75.0303 94.3314 74.9472C94.1152 74.8641 93.8835 74.8214 93.6495 74.8215H85.251C84.7786 74.8218 84.3257 74.9964 83.9917 75.3069C83.6578 75.6174 83.4702 76.0385 83.4702 76.4775V84.2825C83.4702 84.7217 83.6579 85.1429 83.9921 85.4534C84.3263 85.764 84.7795 85.9385 85.2521 85.9385V85.9375ZM87.034 78.1325H91.8686V82.6255H87.034V78.1325Z" fill="#FFBA3F"/>
<path d="M87.1056 97.7615H87.0351V93.2685H91.8527C91.8527 93.7098 92.0413 94.133 92.3771 94.445C92.7128 94.7571 93.1682 94.9324 93.6431 94.9324C94.1179 94.9324 94.5733 94.7571 94.9091 94.445C95.2449 94.133 95.4335 93.7098 95.4335 93.2685V91.6731C95.4309 91.2249 95.2408 90.7952 94.9035 90.4749C94.5662 90.1545 94.1081 89.9687 93.626 89.9565H85.2339C84.7568 89.9728 84.3055 90.1618 83.9762 90.483C83.6469 90.8043 83.4657 91.2324 83.4713 91.6761V99.4751C83.4712 99.6888 83.5173 99.9003 83.6067 100.097C83.6961 100.294 83.8272 100.472 83.992 100.621C84.1569 100.77 84.3522 100.887 84.5664 100.964C84.7807 101.042 85.0095 101.079 85.2393 101.072H87.1056C87.5705 101.062 88.0125 100.883 88.3373 100.574C88.6621 100.264 88.8439 99.8492 88.8439 99.417C88.8439 98.9848 88.6621 98.5698 88.3373 98.2605C88.0125 97.9512 87.5705 97.7721 87.1056 97.7615Z" fill="#FFBA3F"/>
<path d="M97.7327 61.7179L92.5153 66.5666L90.928 65.0914C90.7638 64.9325 90.5671 64.8056 90.3495 64.7182C90.1319 64.6307 89.8977 64.5845 89.6607 64.5823C89.4236 64.58 89.1885 64.6217 88.969 64.705C88.7495 64.7883 88.5501 64.9114 88.3825 65.0672C88.2149 65.223 88.0823 65.4083 87.9927 65.6123C87.9031 65.8163 87.8583 66.0348 87.8607 66.2551C87.8631 66.4754 87.9128 66.693 88.0069 66.8953C88.101 67.0975 88.2375 67.2803 88.4086 67.4328L91.2551 70.0782C91.5892 70.3886 92.0423 70.563 92.5148 70.563C92.9872 70.563 93.4403 70.3886 93.7745 70.0782L100.252 64.0583C100.575 63.7457 100.753 63.3279 100.748 62.8946C100.744 62.4613 100.556 62.047 100.227 61.7406C99.8969 61.4342 99.451 61.2601 98.9848 61.2557C98.5186 61.2513 98.069 61.4169 97.7327 61.7169V61.7179Z" fill="#FFBA3F"/>
<path d="M97.7326 92.2851L92.5152 97.1337L90.9279 95.6586C90.5915 95.3585 90.142 95.1929 89.6757 95.1974C89.2095 95.2018 88.7637 95.3759 88.434 95.6823C88.1043 95.9887 87.917 96.403 87.9122 96.8363C87.9074 97.2696 88.0856 97.6874 88.4085 98L91.255 100.645C91.4204 100.799 91.6168 100.921 91.8329 101.004C92.049 101.088 92.2807 101.131 92.5147 101.131C92.7487 101.131 92.9804 101.088 93.1965 101.004C93.4127 100.921 93.609 100.799 93.7744 100.645L100.252 94.6255C100.575 94.3128 100.753 93.8951 100.748 93.4618C100.744 93.0285 100.556 92.6142 100.226 92.3078C99.8968 92.0014 99.451 91.8273 98.9847 91.8228C98.5185 91.8184 98.069 91.984 97.7326 92.2841V92.2851Z" fill="#FFBA3F"/>
<path d="M116.008 63.7056H104.82C104.355 63.7162 103.913 63.8952 103.588 64.2045C103.263 64.5138 103.081 64.9289 103.081 65.361C103.081 65.7932 103.263 66.2082 103.588 66.5176C103.913 66.8269 104.355 67.0059 104.82 67.0165H116.008C116.245 67.0219 116.482 66.9831 116.703 66.9023C116.924 66.8216 117.126 66.7005 117.296 66.5462C117.466 66.392 117.601 66.2076 117.693 66.0041C117.786 65.8006 117.833 65.5819 117.833 65.361C117.833 65.1402 117.786 64.9215 117.693 64.718C117.601 64.5144 117.466 64.3301 117.296 64.1759C117.126 64.0216 116.924 63.9005 116.703 63.8197C116.482 63.739 116.245 63.7002 116.008 63.7056Z" fill="#FFBA3F"/>
<path d="M116.008 78.8418H104.82C104.355 78.8524 103.913 79.0315 103.588 79.3408C103.263 79.6501 103.081 80.0651 103.081 80.4973C103.081 80.9294 103.263 81.3445 103.588 81.6538C103.913 81.9631 104.355 82.1422 104.82 82.1527H116.008C116.245 82.1582 116.482 82.1193 116.703 82.0386C116.924 81.9578 117.126 81.8367 117.296 81.6825C117.466 81.5282 117.601 81.3439 117.693 81.1403C117.786 80.9368 117.833 80.7182 117.833 80.4973C117.833 80.2764 117.786 80.0577 117.693 79.8542C117.601 79.6507 117.466 79.4664 117.296 79.3121C117.126 79.1578 116.924 79.0367 116.703 78.956C116.482 78.8752 116.245 78.8364 116.008 78.8418Z" fill="#FFBA3F"/>
<path d="M116.008 93.9778H104.82C104.355 93.9884 103.913 94.1674 103.588 94.4768C103.263 94.7861 103.081 95.2011 103.081 95.6333C103.081 96.0654 103.263 96.4805 103.588 96.7898C103.913 97.0991 104.355 97.2781 104.82 97.2887H116.008C116.245 97.2941 116.482 97.2553 116.703 97.1746C116.924 97.0938 117.126 96.9727 117.296 96.8184C117.466 96.6642 117.601 96.4799 117.693 96.2763C117.786 96.0728 117.833 95.8541 117.833 95.6333C117.833 95.4124 117.786 95.1937 117.693 94.9902C117.601 94.7866 117.466 94.6023 117.296 94.4481C117.126 94.2938 116.924 94.1727 116.703 94.092C116.482 94.0112 116.245 93.9724 116.008 93.9778Z" fill="#FFBA3F"/>
</svg>
