<svg width="136" height="129" viewBox="0 0 136 129" fill="none" xmlns="http://www.w3.org/2000/svg">
<path opacity="0.71" d="M50.8295 73.5287H84.5412L91.0962 53.1782L77.9862 56.4227L69.2455 53.1782L58.6335 58.1919L46.4592 53.1782L50.8295 73.5287Z" fill="#FFD5DB"/>
<path d="M68.2394 32.9499C74.9385 32.9521 81.4865 34.8311 87.0556 38.3493C92.6247 41.8675 96.9647 46.867 99.5269 52.7157C102.089 58.5643 102.758 64.9995 101.45 71.2076C100.142 77.4157 96.9154 83.1179 92.1778 87.5933C87.4402 92.0686 81.4046 95.1162 74.8341 96.3507C68.2636 97.5852 61.4532 96.9511 55.2641 94.5287C49.0749 92.1062 43.7849 88.0042 40.0629 82.7412C36.3408 77.4782 34.3539 71.2905 34.3532 64.9606C34.3459 60.7543 35.2174 56.588 36.9179 52.7006C38.6183 48.8132 41.1142 45.2813 44.2624 42.3073C47.4106 39.3334 51.1491 36.9759 55.2637 35.3702C59.3782 33.7644 63.7877 32.9419 68.2394 32.9499ZM68.2394 28.3804C60.582 28.378 53.0958 30.5214 46.7277 34.5395C40.3596 38.5575 35.3956 44.2697 32.4635 50.9537C29.5314 57.6376 28.7629 64.9931 30.2553 72.0897C31.7476 79.1864 35.4338 85.7055 40.8475 90.8225C46.2612 95.9395 53.1593 99.4246 60.6694 100.837C68.1795 102.249 75.9642 101.526 83.039 98.7574C90.1137 95.9891 96.1608 91.3005 100.415 85.2847C104.67 79.2689 106.941 72.196 106.941 64.9606C106.928 55.2645 102.847 45.9687 95.5925 39.1115C88.3376 32.2542 78.501 28.3951 68.2394 28.3804Z" fill="#FE96A6"/>
<path d="M68.2394 0.945355C67.9206 0.943521 67.6046 1.00127 67.3095 1.11526C67.0145 1.22926 66.7462 1.39727 66.5201 1.60961C66.294 1.82196 66.1145 2.07445 65.9921 2.35256C65.8697 2.63067 65.8066 2.92891 65.8066 3.23013V21.5083C65.8066 22.1143 66.0614 22.6954 66.5149 23.1239C66.9683 23.5524 67.5834 23.7931 68.2247 23.7931C68.866 23.7931 69.481 23.5524 69.9345 23.1239C70.388 22.6954 70.6427 22.1143 70.6427 21.5083V3.23013C70.6449 2.93067 70.5844 2.63376 70.4646 2.35652C70.3448 2.07928 70.1681 1.8272 69.9446 1.6148C69.7212 1.4024 69.4555 1.23389 69.1628 1.119C68.8702 1.0041 68.5563 0.945085 68.2394 0.945355Z" fill="#FE96A6"/>
<path d="M68.2394 106.113C67.5973 106.115 66.9819 106.356 66.5265 106.784C66.0711 107.211 65.8124 107.791 65.8066 108.398V126.689C65.8066 127.295 66.0614 127.876 66.5149 128.305C66.9683 128.733 67.5834 128.974 68.2247 128.974C68.866 128.974 69.481 128.733 69.9345 128.305C70.388 127.876 70.6427 127.295 70.6427 126.689V108.398C70.6427 107.794 70.39 107.215 69.9397 106.787C69.4894 106.359 68.8781 106.117 68.2394 106.113Z" fill="#FE96A6"/>
<path d="M114.211 62.6738C113.569 62.6738 112.954 62.9145 112.501 63.343C112.047 63.7715 111.792 64.3526 111.792 64.9586C111.792 65.5646 112.047 66.1457 112.501 66.5742C112.954 67.0027 113.569 67.2434 114.211 67.2434H133.582C134.223 67.2434 134.838 67.0027 135.292 66.5742C135.745 66.1457 136 65.5646 136 64.9586C136 64.3526 135.745 63.7715 135.292 63.343C134.838 62.9145 134.223 62.6738 133.582 62.6738H114.211Z" fill="#FE96A6"/>
<path d="M2.90827 62.6738C2.2685 62.6785 1.65633 62.9207 1.20393 63.3482C0.751529 63.7757 0.495183 64.3541 0.490234 64.9586C0.490234 65.5646 0.744991 66.1457 1.19846 66.5742C1.65193 67.0027 2.26697 67.2434 2.90827 67.2434H22.2662C22.585 67.2452 22.901 67.1875 23.1961 67.0735C23.4912 66.9595 23.7595 66.7915 23.9856 66.5791C24.2117 66.3668 24.3911 66.1143 24.5135 65.8362C24.636 65.5581 24.699 65.2598 24.699 64.9586C24.6932 64.3519 24.4345 63.7719 23.9791 63.3442C23.5237 62.9165 22.9083 62.6756 22.2662 62.6738H2.90827Z" fill="#FE96A6"/>
<path d="M112.712 19.6844L99.0451 32.6182C98.8201 32.831 98.6417 33.0835 98.52 33.3614C98.3983 33.6394 98.3358 33.9372 98.3359 34.238C98.3361 34.5387 98.3989 34.8365 98.5209 35.1143C98.6428 35.3921 98.8215 35.6445 99.0467 35.8571C99.2718 36.0697 99.5391 36.2383 99.8332 36.3532C100.127 36.4682 100.443 36.5273 100.761 36.5272C101.079 36.527 101.394 36.4676 101.688 36.3524C101.982 36.2372 102.25 36.0684 102.474 35.8556L116.142 22.9248C116.582 22.4924 116.826 21.9138 116.82 21.3136C116.814 20.7134 116.559 20.1394 116.109 19.7149C115.66 19.2905 115.053 19.0495 114.417 19.0438C113.782 19.0381 113.17 19.2681 112.712 19.6844Z" fill="#FE96A6"/>
<path d="M34.0262 94.0538L20.338 106.995C20.0984 107.203 19.906 107.455 19.7722 107.736C19.6384 108.017 19.566 108.32 19.5593 108.628C19.5527 108.936 19.612 109.242 19.7336 109.527C19.8552 109.813 20.0367 110.072 20.2671 110.29C20.4975 110.508 20.772 110.679 21.0743 110.794C21.3766 110.909 21.7003 110.965 22.0261 110.959C22.3518 110.953 22.6729 110.884 22.9699 110.758C23.267 110.631 23.534 110.449 23.7548 110.223L37.4525 97.2922C37.8975 96.8611 38.1448 96.2816 38.1408 95.6794C38.1369 95.0771 37.882 94.5006 37.4314 94.0747C36.9808 93.6488 36.3707 93.4078 35.7333 93.4039C35.096 93.3999 34.4826 93.6335 34.0262 94.0538Z" fill="#FE96A6"/>
<path d="M99.0397 94.054C98.8122 94.2655 98.6315 94.5177 98.5082 94.7958C98.3848 95.074 98.3213 95.3726 98.3213 95.6742C98.3213 95.9758 98.3848 96.2744 98.5082 96.5525C98.6315 96.8307 98.8122 97.0829 99.0397 97.2944L112.707 110.225C112.931 110.438 113.198 110.607 113.491 110.722C113.785 110.838 114.099 110.898 114.417 110.898C114.735 110.899 115.05 110.84 115.344 110.726C115.638 110.611 115.905 110.443 116.13 110.231C116.355 110.019 116.534 109.767 116.656 109.49C116.778 109.213 116.842 108.916 116.842 108.615C116.843 108.315 116.781 108.017 116.66 107.74C116.538 107.462 116.361 107.209 116.136 106.997L102.469 94.054C102.014 93.6251 101.397 93.3843 100.754 93.3843C100.112 93.3843 99.495 93.6251 99.0397 94.054Z" fill="#FE96A6"/>
<path d="M20.3381 19.6905C20.1106 19.902 19.9299 20.1542 19.8065 20.4324C19.6832 20.7105 19.6196 21.0091 19.6196 21.3107C19.6196 21.6123 19.6832 21.9109 19.8065 22.1891C19.9299 22.4672 20.1106 22.7194 20.3381 22.9309L34.0263 35.8617C34.4806 36.291 35.0969 36.5322 35.7394 36.5322C36.3819 36.5322 36.9982 36.291 37.4525 35.8617C37.9069 35.4324 38.1621 34.8502 38.1621 34.243C38.1621 33.6359 37.9069 33.0536 37.4525 32.6243L23.7549 19.6905C23.2992 19.2669 22.6857 19.0295 22.0465 19.0295C21.4073 19.0295 20.7937 19.2669 20.3381 19.6905Z" fill="#FE96A6"/>
<path d="M68.2394 56.2794L74.1499 60.0076C74.4767 60.2185 74.8538 60.3494 75.2474 60.3888C75.6409 60.4281 76.0387 60.3747 76.405 60.2331L84.1059 57.3285L80.8668 69.5331H55.612L52.3865 57.3275L60.0748 60.2331C60.4411 60.3747 60.8389 60.4281 61.2324 60.3888C61.626 60.3494 62.0031 60.2185 62.3299 60.0076L68.2394 56.2794ZM88.4247 51.3871C87.8619 51.1913 87.2421 51.2001 86.6858 51.4119L75.7752 55.5414L69.5724 51.6245C69.1774 51.374 68.7125 51.2402 68.2367 51.2402C67.761 51.2402 67.2961 51.374 66.901 51.6245L60.7056 55.5414L49.7887 51.4109C49.3742 51.252 48.9211 51.205 48.4799 51.2749C48.0388 51.3448 47.6268 51.529 47.2898 51.8069C46.9528 52.0849 46.704 52.4458 46.5711 52.8493C46.4382 53.2529 46.4264 53.6835 46.537 54.093L51.373 72.3831C51.506 72.8759 51.8086 73.3128 52.2332 73.6252C52.6579 73.9376 53.1804 74.1076 53.7185 74.1086H82.757C83.2952 74.1076 83.8177 73.9376 84.2423 73.6252C84.667 73.3128 84.9696 72.8759 85.1025 72.3831L89.9386 54.093C90.0831 53.5455 90.009 52.9669 89.7305 52.4677C89.452 51.9685 88.9886 51.5838 88.4289 51.3871H88.4247Z" fill="#FE96A6"/>
<path d="M53.7205 78.6782C53.0792 78.6782 52.4642 78.9189 52.0107 79.3474C51.5572 79.7759 51.3025 80.357 51.3025 80.963C51.3025 81.569 51.5572 82.1501 52.0107 82.5786C52.4642 83.0071 53.0792 83.2478 53.7205 83.2478H82.7559C83.3972 83.2478 84.0122 83.0071 84.4657 82.5786C84.9192 82.1501 85.1739 81.569 85.1739 80.963C85.1739 80.357 84.9192 79.7759 84.4657 79.3474C84.0122 78.9189 83.3972 78.6782 82.7559 78.6782H53.7205Z" fill="#FE96A6"/>
</svg>
