<svg width="111" height="105" viewBox="0 0 111 105" fill="none" xmlns="http://www.w3.org/2000/svg">
<path d="M56.5 0.260498C61.3456 0.260498 66.0825 1.72672 70.1115 4.47376C74.1405 7.22079 77.2807 11.1253 79.135 15.6934C80.9894 20.2616 81.4746 25.2882 80.5292 30.1378C79.5839 34.9873 77.2505 39.4418 73.8241 42.9382C70.3977 46.4345 66.0322 48.8155 61.2797 49.7801C56.5272 50.7448 51.601 50.2497 47.1243 48.3575C42.6475 46.4653 38.8211 43.261 36.129 39.1497C33.4369 35.0385 32 30.205 32 25.2605C32 18.6301 34.5812 12.2712 39.1759 7.58283C43.7705 2.89442 50.0022 0.260498 56.5 0.260498Z" fill="#F2F3F5"/>
<path d="M91.9394 70.2605H19.0606C8.53372 70.2605 0 77.8717 0 87.2605C0 96.6493 8.53372 104.26 19.0606 104.26H91.9394C102.466 104.26 111 96.6493 111 87.2605C111 77.8717 102.466 70.2605 91.9394 70.2605Z" fill="#F2F3F5"/>
<path fill-rule="evenodd" clip-rule="evenodd" d="M45.0352 12.4578C41.7268 12.4576 38.4926 13.4284 35.7417 15.2474C32.9907 17.0664 30.8465 19.652 29.5802 22.6772C28.3139 25.7024 27.9824 29.0313 28.6276 32.2429C29.2727 35.4546 30.8656 38.4048 33.2048 40.7204C35.544 43.036 38.5244 44.6132 41.7692 45.2523C45.0139 45.8914 48.3773 45.5639 51.434 44.3111C54.4907 43.0583 57.1034 40.9366 58.9418 38.2141C60.7801 35.4916 61.7616 32.2908 61.762 29.0162C61.7622 26.8419 61.3298 24.6889 60.4893 22.68C59.6488 20.6711 58.4168 18.8457 56.8636 17.3081C55.3103 15.7705 53.4663 14.5507 51.4368 13.7185C49.4073 12.8863 47.232 12.4579 45.0352 12.4578ZM20.5873 29.0162C20.5867 24.2303 22.0201 19.5516 24.7061 15.572C27.3921 11.5923 31.2101 8.49039 35.6773 6.65847C40.1445 4.82656 45.0603 4.34694 49.8029 5.28027C54.5455 6.2136 58.902 8.51796 62.3214 11.9019C65.7408 15.2859 68.0695 19.5975 69.0131 24.2914C69.9567 28.9854 69.4727 33.8509 67.6224 38.2726C65.7721 42.6943 62.6385 46.4736 58.618 49.1326C54.5975 51.7916 49.8707 53.2108 45.0352 53.2108C38.5517 53.2108 32.3338 50.6619 27.749 46.1246C23.1642 41.5873 20.5881 35.4333 20.5873 29.0162ZM86.2098 32.8373C87.2337 32.8373 88.2157 33.2399 88.9397 33.9564C89.6637 34.673 90.0704 35.6449 90.0704 36.6583V45.5727H99.077C99.5892 45.5645 100.098 45.6573 100.573 45.8456C101.049 46.034 101.482 46.3141 101.847 46.6697C102.212 47.0252 102.502 47.4492 102.7 47.9168C102.898 48.3844 103 48.8863 103 49.3933C103 49.9003 102.898 50.4022 102.7 50.8698C102.502 51.3374 102.212 51.7613 101.847 52.1169C101.482 52.4725 101.049 52.7526 100.573 52.9409C100.098 53.1292 99.5892 53.222 99.077 53.2138H90.0704V62.1282C90.0787 62.6352 89.985 63.1386 89.7947 63.6093C89.6044 64.08 89.3214 64.5086 88.9622 64.8699C88.6029 65.2313 88.1746 65.5183 87.7021 65.7142C87.2297 65.9101 86.7226 66.011 86.2104 66.011C85.6981 66.011 85.191 65.9101 84.7186 65.7142C84.2461 65.5183 83.8178 65.2313 83.4585 64.8699C83.0993 64.5086 82.8163 64.08 82.626 63.6093C82.4357 63.1386 82.342 62.6352 82.3503 62.1282V53.2108H73.3426C72.3297 53.1946 71.3638 52.785 70.6532 52.0702C69.9427 51.3555 69.5445 50.393 69.5445 49.3903C69.5445 48.3876 69.9427 47.425 70.6532 46.7103C71.3638 45.9956 72.3297 45.586 73.3426 45.5697H82.3493V36.6553C82.3493 36.1535 82.4491 35.6567 82.6432 35.1931C82.8372 34.7295 83.1215 34.3083 83.48 33.9534C83.8385 33.5986 84.2641 33.3172 84.7325 33.1251C85.2009 32.9331 85.7029 32.8343 86.2098 32.8343V32.8373ZM0 90.1438C-1.09214e-08 86.966 0.63243 83.8193 1.86118 80.8834C3.08992 77.9475 4.89092 75.2798 7.16133 73.0329C9.43174 70.7859 12.1271 69.0036 15.0935 67.7876C18.0599 66.5717 21.2392 65.946 24.4499 65.9463H65.6225C68.8331 65.9461 72.0123 66.5719 74.9785 67.7879C77.9447 69.0039 80.6399 70.7863 82.9101 73.0333C85.1803 75.2803 86.9811 77.9478 88.2097 80.8837C89.4383 83.8195 90.0705 86.9661 90.0704 90.1438V100.333C90.0704 101.346 89.6637 102.318 88.9397 103.034C88.2157 103.751 87.2337 104.154 86.2098 104.154H3.86056C2.83668 104.154 1.85473 103.751 1.13073 103.034C0.406737 102.318 0 101.346 0 100.333V90.1438ZM24.4499 73.5883C22.2531 73.5881 20.0777 74.0161 18.0481 74.848C16.0184 75.6798 14.1742 76.8992 12.6206 78.4366C11.0671 79.9739 9.83476 81.799 8.99393 83.8078C8.15309 85.8165 7.72025 87.9695 7.72012 90.1438V96.5116H82.3503V90.1438C82.35 85.753 80.5875 81.542 77.4505 78.4373C74.3134 75.3326 70.0588 73.5883 65.6225 73.5883H24.4499Z" fill="#8C42C5"/>
</svg>
