<svg width="210" height="448" viewBox="0 0 210 448" fill="none" xmlns="http://www.w3.org/2000/svg">
<path d="M8.1 159.403V111.703H91.2V330.703H37.8V159.403H8.1Z" fill="#FBF9FC"/>
<path d="M155.5 129.26C160.346 129.26 165.082 130.727 169.111 133.474C173.14 136.221 176.281 140.125 178.135 144.693C179.989 149.262 180.475 154.288 179.529 159.138C178.584 163.987 176.25 168.442 172.824 171.938C169.398 175.434 165.032 177.815 160.28 178.78C155.527 179.745 150.601 179.25 146.124 177.357C141.647 175.465 137.821 172.261 135.129 168.15C132.437 164.039 131 159.205 131 154.26C131 147.63 133.581 141.271 138.176 136.583C142.771 131.894 149.002 129.26 155.5 129.26Z" fill="#F2F3F5"/>
<path d="M190.939 199.26H118.061C107.534 199.26 99 206.872 99 216.26C99 225.649 107.534 233.26 118.061 233.26H190.939C201.466 233.26 210 225.649 210 216.26C210 206.872 201.466 199.26 190.939 199.26Z" fill="#F2F3F5"/>
<path fill-rule="evenodd" clip-rule="evenodd" d="M144.035 141.458C140.727 141.458 137.493 142.428 134.742 144.247C131.991 146.066 129.847 148.652 128.58 151.677C127.314 154.702 126.982 158.031 127.628 161.243C128.273 164.455 129.866 167.405 132.205 169.72C134.544 172.036 137.524 173.613 140.769 174.252C144.014 174.891 147.377 174.564 150.434 173.311C153.491 172.058 156.103 169.937 157.942 167.214C159.78 164.492 160.762 161.291 160.762 158.016C160.762 155.842 160.33 153.689 159.489 151.68C158.649 149.671 157.417 147.846 155.864 146.308C154.31 144.77 152.466 143.551 150.437 142.719C148.407 141.886 146.232 141.458 144.035 141.458ZM119.587 158.016C119.587 153.23 121.02 148.552 123.706 144.572C126.392 140.592 130.21 137.49 134.677 135.658C139.145 133.827 144.06 133.347 148.803 134.28C153.546 135.214 157.902 137.518 161.321 140.902C164.741 144.286 167.07 148.597 168.013 153.291C168.957 157.985 168.473 162.851 166.622 167.273C164.772 171.694 161.639 175.474 157.618 178.133C153.598 180.792 148.871 182.211 144.035 182.211C137.552 182.211 131.334 179.662 126.749 175.125C122.164 170.587 119.588 164.433 119.587 158.016ZM185.21 161.837C186.234 161.837 187.216 162.24 187.94 162.956C188.664 163.673 189.07 164.645 189.07 165.658V174.573H198.077C198.589 174.565 199.098 174.657 199.573 174.846C200.049 175.034 200.482 175.314 200.847 175.67C201.212 176.025 201.502 176.449 201.7 176.917C201.898 177.384 202 177.886 202 178.393C202 178.9 201.898 179.402 201.7 179.87C201.502 180.337 201.212 180.761 200.847 181.117C200.482 181.472 200.049 181.753 199.573 181.941C199.098 182.129 198.589 182.222 198.077 182.214H189.07V191.128C189.079 191.635 188.985 192.139 188.795 192.609C188.604 193.08 188.321 193.509 187.962 193.87C187.603 194.231 187.175 194.518 186.702 194.714C186.23 194.91 185.723 195.011 185.21 195.011C184.698 195.011 184.191 194.91 183.719 194.714C183.246 194.518 182.818 194.231 182.459 193.87C182.099 193.509 181.816 193.08 181.626 192.609C181.436 192.139 181.342 191.635 181.35 191.128V182.211H172.343C171.33 182.195 170.364 181.785 169.653 181.07C168.943 180.356 168.544 179.393 168.544 178.39C168.544 177.388 168.943 176.425 169.653 175.71C170.364 174.996 171.33 174.586 172.343 174.57H181.349V165.655C181.349 165.154 181.449 164.657 181.643 164.193C181.837 163.729 182.122 163.308 182.48 162.953C182.839 162.599 183.264 162.317 183.732 162.125C184.201 161.933 184.703 161.834 185.21 161.834V161.837ZM99 219.144C99 215.966 99.6324 212.819 100.861 209.883C102.09 206.947 103.891 204.28 106.161 202.033C108.432 199.786 111.127 198.004 114.093 196.788C117.06 195.572 120.239 194.946 123.45 194.946H164.623C167.833 194.946 171.012 195.572 173.978 196.788C176.945 198.004 179.64 199.786 181.91 202.033C184.18 204.28 185.981 206.948 187.21 209.884C188.438 212.82 189.071 215.966 189.07 219.144V229.333C189.07 230.346 188.664 231.318 187.94 232.034C187.216 232.751 186.234 233.154 185.21 233.154H102.861C101.837 233.154 100.855 232.751 100.131 232.034C99.4067 231.318 99 230.346 99 229.333V219.144ZM123.45 202.588C121.253 202.588 119.078 203.016 117.048 203.848C115.018 204.68 113.174 205.899 111.621 207.437C110.067 208.974 108.835 210.799 107.994 212.808C107.153 214.817 106.72 216.97 106.72 219.144V225.512H181.35V219.144C181.35 214.753 179.588 210.542 176.45 207.437C173.313 204.333 169.059 202.588 164.623 202.588H123.45Z" fill="#8C42C5"/>
</svg>
