<svg width="307" height="307" viewBox="0 0 307 307" fill="none" xmlns="http://www.w3.org/2000/svg">
<path d="M201.622 219.428H90.8527C88.3008 219.428 86.2477 217.375 86.2477 214.823C86.2477 212.271 88.3008 210.218 90.8527 210.218H197.017V77.575C197.017 73.7567 193.928 70.6675 190.11 70.6675H22.2574C18.4391 70.6675 15.3499 73.7567 15.3499 77.575V203.311C15.3499 207.129 18.4391 210.218 22.2574 210.218H38.6243C41.1763 210.218 43.2293 212.271 43.2293 214.823C43.2293 217.375 41.1763 219.428 38.6243 219.428H22.2574C13.3736 219.428 6.13989 212.195 6.13989 203.311V77.575C6.13989 68.6912 13.3736 61.4575 22.2574 61.4575H190.11C198.993 61.4575 206.227 68.6912 206.227 77.575V214.823C206.227 217.375 204.155 219.428 201.622 219.428Z" fill="#96B91D"/>
<path d="M64.7385 245.542C47.7959 245.542 34.0193 231.766 34.0193 214.823C34.0193 197.881 47.7959 184.104 64.7385 184.104C81.681 184.104 95.4577 197.881 95.4577 214.823C95.4577 231.766 81.681 245.542 64.7385 245.542ZM64.7385 193.314C52.8806 193.314 43.2293 202.965 43.2293 214.823C43.2293 226.681 52.8806 236.332 64.7385 236.332C76.5963 236.332 86.2477 226.681 86.2477 214.823C86.2477 202.965 76.5963 193.314 64.7385 193.314Z" fill="#96B91D"/>
<path d="M64.7386 228.216C57.3514 228.216 51.3457 222.21 51.3457 214.823C51.3457 207.436 57.3514 201.43 64.7386 201.43C72.1258 201.43 78.1315 207.436 78.1315 214.823C78.1315 222.21 72.1258 228.216 64.7386 228.216ZM64.7386 210.64C62.4361 210.64 60.5557 212.521 60.5557 214.823C60.5557 217.126 62.4361 219.006 64.7386 219.006C67.0411 219.006 68.9215 217.126 68.9215 214.823C68.9215 212.521 67.0411 210.64 64.7386 210.64Z" fill="#96B91D"/>
<path d="M44.8027 202.543H10.7449C8.19295 202.543 6.13989 200.49 6.13989 197.938C6.13989 195.386 8.19295 193.333 10.7449 193.333H44.8027C47.3546 193.333 49.4077 195.386 49.4077 197.938C49.4077 200.49 47.3546 202.543 44.8027 202.543Z" fill="#96B91D"/>
<path d="M201.622 202.543H84.655C82.1031 202.543 80.05 200.49 80.05 197.938C80.05 195.386 82.1031 193.333 84.655 193.333H201.622C204.174 193.333 206.227 195.386 206.227 197.938C206.227 200.49 204.155 202.543 201.622 202.543Z" fill="#96B91D"/>
<path d="M284.742 219.428H275.916C273.364 219.428 271.311 217.375 271.311 214.823C271.311 212.271 273.364 210.218 275.916 210.218H284.742C288.561 210.218 291.65 207.129 291.65 203.311V167.104C291.65 165.876 291.324 164.686 290.71 163.612L256.479 104.956C255.251 102.845 252.968 101.521 250.512 101.521H206.208V210.199H223.669C226.221 210.199 228.274 212.252 228.274 214.804C228.274 217.356 226.221 219.409 223.669 219.409H201.603C199.051 219.409 196.998 217.356 196.998 214.804V96.9353C196.998 94.3834 199.051 92.3303 201.603 92.3303H250.512C256.23 92.3303 261.564 95.4003 264.442 100.332L298.673 158.988C300.112 161.463 300.86 164.264 300.86 167.104V203.311C300.86 212.195 293.626 219.428 284.742 219.428Z" fill="#96B91D"/>
<path d="M276.645 168.601H218.929C216.378 168.601 214.324 166.547 214.324 163.996V114.741C214.324 112.189 216.378 110.136 218.929 110.136H248.344C249.994 110.136 251.51 111.019 252.335 112.439L280.617 161.693C281.442 163.113 281.423 164.878 280.617 166.298C279.792 167.718 278.276 168.601 276.645 168.601ZM223.534 159.391H268.683L245.696 119.346H223.534V159.391Z" fill="#96B91D"/>
<path d="M249.802 245.543C232.859 245.543 219.083 231.766 219.083 214.823C219.083 197.881 232.859 184.104 249.802 184.104C266.745 184.104 280.521 197.881 280.521 214.823C280.521 231.766 266.745 245.543 249.802 245.543ZM249.802 193.314C237.944 193.314 228.293 202.966 228.293 214.823C228.293 226.681 237.944 236.333 249.802 236.333C261.66 236.333 271.311 226.681 271.311 214.823C271.311 202.966 261.66 193.314 249.802 193.314Z" fill="#96B91D"/>
<path d="M249.802 228.216C242.415 228.216 236.409 222.21 236.409 214.823C236.409 207.436 242.415 201.43 249.802 201.43C257.189 201.43 263.195 207.436 263.195 214.823C263.195 222.21 257.189 228.216 249.802 228.216ZM249.802 210.64C247.5 210.64 245.619 212.521 245.619 214.823C245.619 217.126 247.5 219.006 249.802 219.006C252.105 219.006 253.985 217.126 253.985 214.823C253.985 212.521 252.105 210.64 249.802 210.64Z" fill="#96B91D"/>
</svg>
