<svg width="113" height="95" viewBox="0 0 113 95" fill="none" xmlns="http://www.w3.org/2000/svg">
<path d="M97.5312 24.3705C97.5312 24.9536 97.3379 25.5237 96.9756 26.0086C96.6133 26.4934 96.0984 26.8713 95.4959 27.0945C94.8935 27.3176 94.2306 27.376 93.591 27.2623C92.9515 27.1485 92.364 26.8677 91.9029 26.4553C91.4418 26.043 91.1278 25.5177 91.0006 24.9457C90.8734 24.3738 90.9387 23.781 91.1882 23.2422C91.4378 22.7035 91.8603 22.243 92.4025 21.919C92.9447 21.595 93.5822 21.4221 94.2342 21.4221C94.6673 21.422 95.096 21.4982 95.4961 21.6463C95.8962 21.7944 96.2597 22.0116 96.5659 22.2854C96.8721 22.5592 97.1149 22.8843 97.2806 23.2421C97.4462 23.5998 97.5314 23.9833 97.5312 24.3705Z" fill="#98A1B3"/>
<path d="M85.4133 10.2238C85.4133 10.8069 85.2199 11.377 84.8576 11.8618C84.4953 12.3467 83.9804 12.7246 83.378 12.9477C82.7755 13.1709 82.1127 13.2293 81.4731 13.1155C80.8335 13.0018 80.2461 12.721 79.785 12.3086C79.3239 11.8963 79.0099 11.3709 78.8827 10.799C78.7555 10.2271 78.8208 9.63423 79.0703 9.09548C79.3198 8.55673 79.7424 8.09626 80.2846 7.77228C80.8268 7.44831 81.4642 7.27539 82.1163 7.27539C82.9907 7.27539 83.8293 7.58602 84.4476 8.13895C85.0659 8.69189 85.4133 9.44182 85.4133 10.2238Z" fill="#98A1B3"/>
<path d="M112.225 78.3622C111.967 77.2543 111.465 76.2035 110.748 75.2712C110.031 74.339 109.113 73.544 108.048 72.933C106.983 72.3219 105.793 71.907 104.546 71.7126C103.3 71.5181 102.022 71.548 100.789 71.8005L89.1425 74.19V69.9305C91.5837 67.8552 93.7626 65.5464 95.64 63.0457C98.6623 58.951 100.824 54.3979 102.02 49.6096C103.448 43.8573 103.478 37.898 102.109 32.1343C101.978 31.6363 101.635 31.2039 101.152 30.9301C100.669 30.6562 100.085 30.5628 99.5258 30.67C98.9666 30.7771 98.4767 31.0762 98.1615 31.5029C97.8464 31.9296 97.731 32.4499 97.8403 32.9519C99.0798 38.1648 99.0528 43.555 97.7614 48.7577C96.6805 53.0843 94.7267 57.1984 91.9957 60.8983C91.1222 62.071 90.1698 63.1951 89.1437 64.2644V42.6303C89.1437 42.1129 88.9138 41.6166 88.5047 41.2507C88.0955 40.8848 87.5406 40.6793 86.962 40.6793H69.7057V19.8379C69.7054 19.3216 69.4764 18.8265 69.0688 18.4608C68.6612 18.0951 68.1083 17.8888 67.5309 17.8869L48.0813 17.8276H48.0744C47.7875 17.8275 47.5034 17.8779 47.2384 17.976C46.9733 18.0741 46.7325 18.218 46.5297 18.3994C46.3268 18.5808 46.166 18.7961 46.0563 19.0332C45.9466 19.2702 45.8902 19.5242 45.8903 19.7808V30.6217H28.6271C28.0486 30.622 27.4938 30.8276 27.0847 31.1934C26.6756 31.5593 26.4457 32.0554 26.4454 32.5727V51.8963H21.5824V49.246C21.5824 48.7286 21.3525 48.2323 20.9434 47.8664C20.5342 47.5005 19.9793 47.295 19.4007 47.295H17.1609C15.856 40.8869 16.4692 34.2842 18.9383 28.1564C19.3449 27.1528 19.8073 26.1534 20.3103 25.1851C20.5546 24.716 20.5806 24.1793 20.3824 23.6931C20.1843 23.2069 19.7783 22.811 19.2537 22.5926C18.7292 22.3741 18.129 22.3508 17.5853 22.528C17.0417 22.7052 16.599 23.0683 16.3546 23.5374C15.7958 24.6096 15.2847 25.7191 14.8351 26.8266C12.1903 33.3759 11.4648 40.4218 12.7277 47.2929H2.88094C2.59404 47.2929 2.30996 47.3435 2.04496 47.4418C1.77996 47.5401 1.53924 47.6842 1.33659 47.8658C1.13394 48.0474 0.97333 48.263 0.863962 48.5002C0.754594 48.7374 0.698613 48.9915 0.699224 49.2481V83.5505C0.699224 84.0679 0.929083 84.5642 1.33823 84.9301C1.74739 85.296 2.30232 85.5015 2.88094 85.5015H19.403C19.9816 85.5015 20.5366 85.296 20.9457 84.9301C21.3549 84.5642 21.5847 84.0679 21.5847 83.5505V81.6992H29.7935L63.0467 93.3629C68.1889 95.1762 73.8398 95.4925 79.1947 94.2667L105.254 88.3377C107.631 87.8014 109.684 86.4639 110.983 84.605C112.282 82.7461 112.727 80.5099 112.225 78.3643V78.3622ZM84.7826 44.5814V75.0783L78.9484 76.273C78.3211 76.4008 77.6867 76.5026 77.049 76.5847C74.6144 76.8848 72.141 76.8205 69.7301 76.3945L69.6999 76.3883V73.4285C70.5358 72.3276 71.0897 71.0753 71.3218 69.7609C71.554 68.4465 71.4587 67.1025 71.0428 65.8248C70.7999 65.1064 70.4547 64.4189 70.0159 63.7792C69.916 63.6344 69.8118 63.4928 69.7034 63.3543C69.7036 63.3522 69.7036 63.3501 69.7034 63.348V44.5803L84.7826 44.5814ZM50.2573 21.7381L65.3376 21.7827V60.2469L56.9093 57.1302L50.2573 54.667V21.7381ZM30.81 34.5238H45.8903V53.0474L43.1835 52.0459C42.9191 51.9478 42.6356 51.8974 42.3494 51.8973H30.8088L30.81 34.5238ZM17.2178 81.5953H5.06382V51.1981H17.2178V81.5953ZM104.183 84.552L78.1201 90.4737C73.6493 91.497 68.9315 91.233 64.6382 89.7195L31.0005 77.9269C30.7466 77.8381 30.4762 77.7926 30.2036 77.7929H21.5824V55.8004H41.9126L56.0333 61.0251L63.76 63.8852C65.0765 64.3866 66.1202 65.3302 66.6666 66.5129C67.213 67.6955 67.2184 69.0227 66.6817 70.2089C66.4646 70.7008 66.1705 71.1625 65.8081 71.5803C65.142 72.3316 64.2496 72.897 63.2361 73.2099C62.2227 73.5228 61.1303 73.5701 60.0878 73.3464L60.0367 73.335C59.91 73.3069 59.7857 73.2737 59.6603 73.2373L44.9772 68.1935L44.7948 68.1311C44.2546 67.9454 43.6539 67.9592 43.125 68.1696C42.5962 68.3799 42.1824 68.7695 41.9747 69.2526C41.7671 69.7358 41.7825 70.2729 42.0177 70.7459C42.2529 71.2188 42.6885 71.5888 43.2288 71.7745C43.2288 71.7745 51.5073 74.6211 57.8212 76.7987C57.9479 76.8433 58.0745 76.8839 58.2011 76.9223L63.049 78.5845C64.5013 79.1122 65.987 79.5631 67.4984 79.9351C71.5708 80.8631 75.8318 80.9108 79.9289 80.0743L87.4569 78.5336L87.4801 78.5274L101.769 75.606C103.096 75.3195 104.497 75.5161 105.662 76.1527C106.827 76.7893 107.661 77.8138 107.982 79.0006C108.302 80.1875 108.082 81.4396 107.37 82.4814C106.658 83.5233 105.513 84.2696 104.186 84.5561L104.183 84.552Z" fill="#96B91D"/>
<path d="M28.606 13.8868C29.1461 13.8873 29.6671 13.7081 30.0675 13.3839C34.1537 10.0772 38.9432 7.54094 44.1501 5.9266C49.3569 4.31226 54.8741 3.65297 60.3723 3.98812C64.445 4.22594 68.4551 5.00718 72.2695 6.3059C72.8102 6.4901 73.4106 6.47465 73.9386 6.26297C74.4666 6.05129 74.8789 5.6607 75.0849 5.17714C75.2909 4.69358 75.2736 4.15665 75.0369 3.68448C74.8002 3.21231 74.3634 2.84356 73.8227 2.65937C69.601 1.22143 65.1625 0.356492 60.6545 0.0932878C54.5749 -0.276005 48.4744 0.453568 42.7169 2.23848C36.9594 4.0234 31.6629 6.82708 27.1434 10.4823C26.8156 10.7465 26.5851 11.0934 26.4823 11.4772C26.3796 11.861 26.4094 12.2637 26.5678 12.632C26.7263 13.0003 27.0059 13.3171 27.3698 13.5403C27.7337 13.7636 28.1647 13.8829 28.606 13.8826V13.8868Z" fill="#96B91D"/>
<path d="M78.144 27.8145C78.5811 28.1536 79.1508 28.3236 79.728 28.2874C80.3052 28.2512 80.8427 28.0116 81.2226 27.6213L99.1805 9.13925C99.5601 8.74868 99.7507 8.23926 99.7102 7.72306C99.6698 7.20685 99.4018 6.72615 98.965 6.38669C98.5283 6.04723 97.9586 5.87683 97.3814 5.91297C96.8042 5.94911 96.2666 6.18884 95.887 6.5794L77.9314 25.0614C77.7432 25.2547 77.5994 25.4792 77.5082 25.7221C77.417 25.9651 77.3802 26.2217 77.4 26.4773C77.4197 26.733 77.4956 26.9827 77.6232 27.2121C77.7509 27.4415 77.9279 27.6462 78.144 27.8145Z" fill="#96B91D"/>
<path d="M94.2353 19.47C93.1517 19.47 92.0925 19.7573 91.1915 20.2957C90.2905 20.834 89.5883 21.5992 89.1736 22.4945C88.7589 23.3897 88.6505 24.3749 88.8619 25.3253C89.0733 26.2757 89.595 27.1487 90.3613 27.8339C91.1275 28.5191 92.1037 28.9857 93.1664 29.1747C94.2292 29.3638 95.3308 29.2667 96.3319 28.8959C97.333 28.5251 98.1886 27.8971 98.7906 27.0914C99.3926 26.2857 99.714 25.3384 99.714 24.3694C99.7124 23.0704 99.1347 21.825 98.1076 20.9065C97.0805 19.988 95.6878 19.4713 94.2353 19.47ZM94.2353 25.3657C94.0149 25.3657 93.7996 25.3073 93.6163 25.1978C93.4331 25.0883 93.2903 24.9327 93.206 24.7507C93.1217 24.5686 93.0996 24.3683 93.1426 24.175C93.1856 23.9818 93.2917 23.8043 93.4475 23.6649C93.6033 23.5256 93.8018 23.4307 94.0179 23.3923C94.234 23.3538 94.4581 23.3735 94.6616 23.449C94.8652 23.5244 95.0392 23.6521 95.1616 23.8159C95.284 23.9797 95.3494 24.1724 95.3494 24.3694C95.3491 24.6336 95.2316 24.8868 95.0227 25.0736C94.8139 25.2604 94.5307 25.3655 94.2353 25.3657Z" fill="#96B91D"/>
<path d="M82.1208 15.1282C83.2044 15.1282 84.2636 14.8409 85.1646 14.3025C86.0655 13.7642 86.7677 12.999 87.1824 12.1037C87.5971 11.2085 87.7056 10.2234 87.4942 9.27296C87.2828 8.32256 86.761 7.44956 85.9948 6.76436C85.2286 6.07916 84.2524 5.61254 83.1896 5.42349C82.1269 5.23444 81.0253 5.33147 80.0242 5.7023C79.0231 6.07312 78.1674 6.7011 77.5654 7.50681C76.9634 8.31252 76.6421 9.25978 76.6421 10.2288C76.6436 11.5278 77.2213 12.7732 78.2485 13.6917C79.2756 14.6102 80.6682 15.1269 82.1208 15.1282ZM82.1208 9.23145C82.3411 9.23145 82.5564 9.28986 82.7396 9.39929C82.9228 9.50872 83.0656 9.66426 83.15 9.84625C83.2343 10.0282 83.2565 10.2285 83.2136 10.4217C83.1707 10.615 83.0647 10.7925 82.909 10.9319C82.7533 11.0713 82.5549 11.1662 82.3388 11.2048C82.1228 11.2434 81.8988 11.2238 81.6952 11.1485C81.4917 11.0733 81.3176 10.9457 81.195 10.782C81.0724 10.6183 81.0069 10.4258 81.0067 10.2288C81.0064 10.0977 81.035 9.96791 81.0908 9.84673C81.1466 9.72556 81.2286 9.61541 81.3321 9.52259C81.4356 9.42977 81.5585 9.3561 81.6938 9.30579C81.8291 9.25548 81.9742 9.22951 82.1208 9.22937V9.23145Z" fill="#96B91D"/>
<path d="M20.8468 18.4725C21.0192 18.8436 21.3156 19.1581 21.6955 19.3728C22.0754 19.5875 22.5202 19.692 22.969 19.672C23.4178 19.652 23.8488 19.5085 24.203 19.2611C24.5571 19.0136 24.8171 18.6744 24.9474 18.2898C25.0777 17.9052 25.0719 17.4939 24.9308 17.1123C24.7898 16.7308 24.5203 16.3975 24.1593 16.1581C23.7984 15.9187 23.3635 15.7849 22.9142 15.775C22.465 15.7651 22.0232 15.8796 21.6495 16.1028C21.2325 16.3558 20.9252 16.7292 20.7791 17.1605C20.633 17.5919 20.6569 18.055 20.8468 18.4725Z" fill="#96B91D"/>
</svg>
