<svg width="118" height="118" viewBox="0 0 118 118" fill="none" xmlns="http://www.w3.org/2000/svg">
<path d="M9.97206 102.594H16.7461C17.2034 102.594 17.6421 102.412 17.9655 102.089C18.2889 101.766 18.4706 101.327 18.4706 100.87C18.4706 100.412 18.2889 99.9735 17.9655 99.6501C17.6421 99.3267 17.2034 99.145 16.7461 99.145H9.97206C9.51469 99.145 9.07606 99.3267 8.75265 99.6501C8.42924 99.9735 8.24756 100.412 8.24756 100.87C8.24756 101.327 8.42924 101.766 8.75265 102.089C9.07606 102.412 9.51469 102.594 9.97206 102.594Z" fill="#96B91D"/>
<path d="M9.97206 109.519H23.4721C23.9294 109.519 24.3681 109.337 24.6915 109.014C25.0149 108.691 25.1966 108.252 25.1966 107.795C25.1966 107.337 25.0149 106.899 24.6915 106.575C24.3681 106.252 23.9294 106.07 23.4721 106.07H9.97206C9.51469 106.07 9.07606 106.252 8.75265 106.575C8.42924 106.899 8.24756 107.337 8.24756 107.795C8.24756 108.252 8.42924 108.691 8.75265 109.014C9.07606 109.337 9.51469 109.519 9.97206 109.519Z" fill="#96B91D"/>
<path d="M31.7191 61.3069H38.4931C38.9505 61.3069 39.3891 61.1252 39.7125 60.8018C40.0359 60.4784 40.2176 60.0398 40.2176 59.5824C40.2176 59.125 40.0359 58.6864 39.7125 58.363C39.3891 58.0396 38.9505 57.8579 38.4931 57.8579H31.7191C31.2618 57.8579 30.8231 58.0396 30.4997 58.363C30.1763 58.6864 29.9946 59.125 29.9946 59.5824C29.9946 60.0398 30.1763 60.4784 30.4997 60.8018C30.8231 61.1252 31.2618 61.3069 31.7191 61.3069Z" fill="#96B91D"/>
<path d="M31.7191 68.232H45.2191C45.6765 68.232 46.1151 68.0503 46.4385 67.7269C46.7619 67.4035 46.9436 66.9648 46.9436 66.5074C46.9436 66.0501 46.7619 65.6115 46.4385 65.2881C46.1151 64.9646 45.6765 64.783 45.2191 64.783H31.7191C31.2618 64.783 30.8231 64.9646 30.4997 65.2881C30.1763 65.6115 29.9946 66.0501 29.9946 66.5074C29.9946 66.9648 30.1763 67.4035 30.4997 67.7269C30.8231 68.0503 31.2618 68.232 31.7191 68.232Z" fill="#96B91D"/>
<path d="M53.4669 102.594H60.2409C60.6983 102.594 61.1369 102.412 61.4603 102.089C61.7837 101.766 61.9654 101.327 61.9654 100.87C61.9654 100.412 61.7837 99.9735 61.4603 99.6501C61.1369 99.3267 60.6983 99.145 60.2409 99.145H53.4669C53.0096 99.145 52.5709 99.3267 52.2475 99.6501C51.9241 99.9735 51.7424 100.412 51.7424 100.87C51.7424 101.327 51.9241 101.766 52.2475 102.089C52.5709 102.412 53.0096 102.594 53.4669 102.594Z" fill="#96B91D"/>
<path d="M66.966 106.07H53.466C53.0086 106.07 52.57 106.252 52.2466 106.575C51.9231 106.899 51.7415 107.337 51.7415 107.795C51.7415 108.252 51.9231 108.691 52.2466 109.014C52.57 109.337 53.0086 109.519 53.466 109.519H66.966C67.4233 109.519 67.862 109.337 68.1854 109.014C68.5088 108.691 68.6905 108.252 68.6905 107.795C68.6905 107.337 68.5088 106.899 68.1854 106.575C67.862 106.252 67.4233 106.07 66.966 106.07Z" fill="#96B91D"/>
<path d="M64.2681 22.765C63.4729 22.9837 62.6892 23.2423 61.9201 23.54C61.4933 23.7051 61.1497 24.0329 60.9647 24.4514C60.7797 24.8699 60.7685 25.3448 60.9336 25.7715C61.0987 26.1982 61.4266 26.5419 61.845 26.7269C62.2635 26.9119 62.7384 26.9231 63.1651 26.758C63.8262 26.5023 64.4997 26.28 65.1831 26.092C65.624 25.9708 65.9987 25.6794 66.2248 25.2819C66.4509 24.8844 66.5098 24.4134 66.3886 23.9725C66.2674 23.5316 65.976 23.1569 65.5785 22.9308C65.181 22.7047 64.71 22.6458 64.2691 22.767L64.2681 22.765Z" fill="#96B91D"/>
<path d="M73.569 22.0311C72.757 21.9421 71.929 21.8921 71.107 21.8831H71.088C70.6308 21.8807 70.1913 22.06 69.8663 22.3817C69.5413 22.7033 69.3574 23.1408 69.355 23.5981C69.3526 24.0553 69.532 24.4948 69.8536 24.8198C70.1752 25.1448 70.6128 25.3287 71.07 25.3311C71.779 25.3381 72.494 25.3811 73.194 25.4581C73.2571 25.4651 73.3205 25.4688 73.384 25.4691C73.8252 25.4692 74.2497 25.3002 74.5701 24.9968C74.8904 24.6934 75.0822 24.2788 75.1061 23.8382C75.1299 23.3976 74.9839 22.9647 74.6982 22.6285C74.4124 22.2924 74.0077 22.0785 73.569 22.0311Z" fill="#96B91D"/>
<path d="M80.664 65.5959C80.037 65.9219 79.387 66.2199 78.732 66.4819C78.5139 66.56 78.3139 66.6813 78.1437 66.8384C77.9736 66.9956 77.8368 67.1854 77.7416 67.3966C77.6464 67.6077 77.5948 67.8359 77.5898 68.0675C77.5847 68.299 77.6264 68.5293 77.7123 68.7444C77.7982 68.9595 77.9266 69.1551 78.0898 69.3195C78.2529 69.4839 78.4476 69.6137 78.662 69.7012C78.8765 69.7887 79.1064 69.8321 79.338 69.8288C79.5696 69.8255 79.7981 69.7755 80.01 69.6819C80.772 69.3819 81.528 69.0319 82.257 68.6519C82.4579 68.5474 82.6362 68.4043 82.7817 68.2309C82.9273 68.0575 83.0373 67.857 83.1054 67.6411C83.1735 67.4251 83.1984 67.1979 83.1787 66.9723C83.159 66.7468 83.0951 66.5273 82.9905 66.3264C82.886 66.1256 82.7429 65.9473 82.5695 65.8017C82.396 65.6561 82.1956 65.5462 81.9797 65.4781C81.5436 65.3405 81.0707 65.3818 80.665 65.5929L80.664 65.5959Z" fill="#96B91D"/>
<path d="M90.2821 37.896C90.5733 38.542 90.8319 39.2022 91.0571 39.874C91.1293 40.0887 91.2431 40.2871 91.392 40.4579C91.5409 40.6286 91.722 40.7683 91.9249 40.8691C92.1278 40.9698 92.3486 41.0296 92.5746 41.045C92.8006 41.0605 93.0274 41.0313 93.2421 40.959C93.4568 40.8868 93.6552 40.773 93.8259 40.6241C93.9967 40.4752 94.1364 40.2941 94.2371 40.0912C94.3379 39.8883 94.3977 39.6676 94.4131 39.4416C94.4286 39.2156 94.3994 38.9887 94.3271 38.774C94.0658 37.9928 93.7654 37.2251 93.4271 36.474C93.334 36.2677 93.2012 36.0816 93.0362 35.9266C92.8712 35.7716 92.6773 35.6506 92.4655 35.5705C92.2537 35.4904 92.0283 35.4528 91.802 35.4598C91.5757 35.4669 91.353 35.5184 91.1466 35.6115C90.9402 35.7046 90.7542 35.8375 90.5992 36.0025C90.4442 36.1675 90.3231 36.3614 90.2431 36.5731C90.163 36.7849 90.1254 37.0104 90.1324 37.2367C90.1395 37.463 90.191 37.6857 90.2841 37.892L90.2821 37.896Z" fill="#96B91D"/>
<path d="M82.487 24.7859C81.763 24.3989 81.011 24.0449 80.253 23.7329C79.8301 23.559 79.3554 23.5601 78.9334 23.7361C78.5113 23.9121 78.1765 24.2486 78.0025 24.6714C77.8285 25.0943 77.8296 25.569 78.0056 25.9911C78.1816 26.4131 78.5181 26.748 78.941 26.9219C79.593 27.1899 80.241 27.4949 80.863 27.8269C81.2688 28.0296 81.7367 28.069 82.1707 27.9372C82.6047 27.8053 82.9716 27.5121 83.196 27.1179C83.411 26.7147 83.4572 26.2425 83.3243 25.8052C83.1913 25.3679 82.8901 25.0013 82.487 24.7859Z" fill="#96B91D"/>
<path d="M89.398 60.4349C89.2268 60.2868 89.028 60.1738 88.8131 60.1025C88.5982 60.0311 88.3714 60.0028 88.1456 60.0191C87.9197 60.0355 87.6993 60.0962 87.4969 60.1977C87.2946 60.2992 87.1141 60.4396 86.966 60.6109C86.505 61.1449 86.01 61.6619 85.497 62.1479C85.1651 62.4623 84.9717 62.8957 84.9594 63.3527C84.947 63.8097 85.1166 64.253 85.431 64.5849C85.7501 64.9089 86.1822 65.0967 86.6367 65.109C87.0912 65.1214 87.5329 64.9572 87.869 64.6509C88.469 64.0859 89.039 63.4859 89.575 62.8659C89.7232 62.6947 89.8362 62.4959 89.9075 62.281C89.9788 62.0661 90.0071 61.8393 89.9908 61.6134C89.9744 61.3876 89.9138 61.1672 89.8122 60.9648C89.7107 60.7624 89.5703 60.582 89.399 60.4339L89.398 60.4349Z" fill="#96B91D"/>
<path d="M93.785 43.9111C93.5587 43.9209 93.3364 43.9754 93.1311 44.0712C92.9258 44.1671 92.7414 44.3024 92.5884 44.4696C92.4354 44.6368 92.3169 44.8325 92.2396 45.0455C92.1624 45.2585 92.1278 45.4847 92.138 45.7111C92.152 46.0261 92.1591 46.3451 92.1591 46.6621C92.1591 47.0531 92.1481 47.4491 92.1271 47.8391C92.1148 48.0651 92.1471 48.2914 92.2223 48.505C92.2975 48.7185 92.414 48.9152 92.5651 49.0837C92.7163 49.2523 92.8992 49.3894 93.1034 49.4872C93.3075 49.5851 93.529 49.6418 93.755 49.6541H93.85C94.2909 49.6537 94.7149 49.4844 95.0348 49.181C95.3547 48.8777 95.5463 48.4633 95.57 48.0231C95.594 47.5711 95.6071 47.1131 95.6071 46.6591C95.6071 46.2921 95.599 45.9211 95.583 45.5591C95.5625 45.102 95.3614 44.6719 95.0239 44.363C94.6864 44.0542 94.2401 43.892 93.7831 43.9121L93.785 43.9111Z" fill="#96B91D"/>
<path d="M93.1791 52.5959C92.9653 52.5215 92.7389 52.49 92.5128 52.5032C92.2868 52.5163 92.0656 52.5739 91.8618 52.6727C91.6581 52.7714 91.4757 52.9093 91.3253 53.0785C91.1749 53.2477 91.0593 53.445 90.9851 53.6589C90.7541 54.3249 90.4851 54.9869 90.1851 55.6279C90.0898 55.8333 90.0358 56.0555 90.0264 56.2818C90.017 56.5081 90.0522 56.7341 90.1301 56.9467C90.208 57.1594 90.3271 57.3546 90.4805 57.5213C90.6339 57.6879 90.8186 57.8227 91.0241 57.9179C91.4406 58.0981 91.9104 58.1115 92.3365 57.9554C92.7627 57.7993 93.1126 57.4855 93.3141 57.0789C93.6591 56.3349 93.9701 55.5649 94.2391 54.7899C94.3892 54.3584 94.3619 53.8849 94.1631 53.4735C93.9644 53.0622 93.6105 52.7465 93.1791 52.5959Z" fill="#96B91D"/>
<path d="M72.968 67.8849C72.268 67.9539 71.5509 67.9849 70.8419 67.9849C70.3846 67.9849 69.9459 68.1666 69.6225 68.49C69.2991 68.8134 69.1174 69.252 69.1174 69.7094C69.1174 70.1668 69.2991 70.6054 69.6225 70.9288C69.9459 71.2522 70.3846 71.4339 70.8419 71.4339C71.6639 71.4339 72.4929 71.3929 73.3069 71.3129C73.7621 71.268 74.1807 71.0441 74.4707 70.6905C74.7607 70.3369 74.8984 69.8825 74.8535 69.4274C74.8085 68.9723 74.5846 68.5537 74.231 68.2637C73.8774 67.9736 73.4231 67.836 72.968 67.8809V67.8849Z" fill="#96B91D"/>
<path d="M87.1119 32.8779C87.4075 33.2269 87.8297 33.4442 88.2855 33.482C88.7413 33.5198 89.1934 33.375 89.5425 33.0794C89.8915 32.7838 90.1088 32.3617 90.1466 31.9059C90.1843 31.4501 90.0395 30.9979 89.7439 30.6489C89.2139 30.0229 88.644 29.4159 88.057 28.8489C87.8942 28.6913 87.7021 28.5673 87.4915 28.484C87.2808 28.4007 87.0558 28.3596 86.8294 28.3633C86.6029 28.3669 86.3793 28.4151 86.1715 28.5051C85.9636 28.5951 85.7755 28.7252 85.618 28.8879C85.4604 29.0506 85.3364 29.2428 85.253 29.4534C85.1697 29.664 85.1287 29.889 85.1323 30.1155C85.1359 30.342 85.1841 30.5655 85.2741 30.7734C85.3642 30.9812 85.4942 31.1693 85.6569 31.3269C86.1669 31.8159 86.6559 32.3379 87.1119 32.8779Z" fill="#96B91D"/>
<path d="M113.7 39.4871L104.549 38.1111C103.729 34.8585 102.439 31.743 100.719 28.8631L106.219 21.4131C106.856 20.5595 107.163 19.5047 107.083 18.4428C107.004 17.3809 106.544 16.3835 105.787 15.6341L101.853 11.7001C101.104 10.9428 100.106 10.4819 99.0443 10.4025C97.9822 10.3231 96.9272 10.6306 96.074 11.2681L88.63 16.7681C85.7523 15.0478 82.6388 13.7572 79.388 12.9371L78.012 3.78106C77.8593 2.72717 77.3307 1.76401 76.5238 1.06916C75.7168 0.374302 74.6859 -0.00539816 73.621 5.79941e-05H68.064C66.999 -0.00536402 65.9679 0.374477 65.1609 1.06953C64.3539 1.76459 63.8255 2.72799 63.673 3.78206L62.3 12.9391C59.0496 13.7593 55.9364 15.0499 53.059 16.7701L45.615 11.2701C44.7619 10.6322 43.7068 10.3245 42.6446 10.4039C41.5824 10.4833 40.5847 10.9444 39.836 11.7021L35.9 15.6331C35.1435 16.3825 34.6832 17.3799 34.6038 18.4418C34.5244 19.5037 34.8313 20.5585 35.468 21.4121L40.968 28.8621C40.468 29.7031 40.002 30.5691 39.568 31.4511H23.468C23.0108 31.4511 22.5723 31.6327 22.2489 31.956C21.9256 32.2793 21.744 32.7178 21.744 33.1751V55.6251C21.744 56.0824 21.9257 56.5211 22.2491 56.8445C22.5725 57.1679 23.0111 57.3496 23.4685 57.3496C23.9259 57.3496 24.3645 57.1679 24.6879 56.8445C25.0113 56.5211 25.193 56.0824 25.193 55.6251V34.9001H37.258V47.2241C37.437 48.0551 37.821 49.2611 39.569 48.8461L45.218 46.8001L50.869 48.8431C51.1294 48.9258 51.4053 48.9473 51.6753 48.9059C51.9454 48.8644 52.2022 48.7612 52.4258 48.6042C52.6493 48.4472 52.8336 48.2407 52.9643 48.0008C53.0949 47.7609 53.1684 47.494 53.179 47.2211V34.9001H65.242V72.7391H25.2V62.5231C25.2 62.0657 25.0183 61.6271 24.6949 61.3036C24.3715 60.9802 23.9329 60.7986 23.4755 60.7986C23.0181 60.7986 22.5795 60.9802 22.2561 61.3036C21.9327 61.6271 21.751 62.0657 21.751 62.5231V72.7391H1.724C1.26677 72.7391 0.828261 72.9207 0.504948 73.244C0.181635 73.5673 0 74.0058 0 74.4631L0 115.751C0 116.208 0.181635 116.647 0.504948 116.97C0.828261 117.293 1.26677 117.475 1.724 117.475H13.787C14.2444 117.475 14.683 117.293 15.0064 116.97C15.3298 116.647 15.5115 116.208 15.5115 115.751C15.5115 115.293 15.3298 114.855 15.0064 114.531C14.683 114.208 14.2444 114.026 13.787 114.026H3.448V76.1871H15.511V88.5121C15.5172 88.7868 15.5878 89.0562 15.7173 89.2985C15.8468 89.5408 16.0315 89.7493 16.2565 89.9071C16.4814 90.0649 16.7403 90.1676 17.0123 90.2068C17.2842 90.2461 17.5616 90.2208 17.822 90.1331L23.471 88.0911L29.122 90.1341C29.3824 90.219 29.659 90.2421 29.9298 90.2016C30.2007 90.161 30.4584 90.058 30.6825 89.9006C30.9067 89.7432 31.0911 89.5358 31.2212 89.2948C31.3513 89.0538 31.4234 88.7858 31.432 88.5121V76.1871H43.5V114.027H20.684C20.2266 114.027 19.788 114.209 19.4646 114.532C19.1412 114.856 18.9595 115.294 18.9595 115.752C18.9595 116.209 19.1412 116.648 19.4646 116.971C19.788 117.294 20.2266 117.476 20.684 117.476H88.714C88.9404 117.476 89.1646 117.431 89.3737 117.345C89.5829 117.258 89.773 117.131 89.9331 116.971C90.0931 116.811 90.2201 116.621 90.3068 116.412C90.3934 116.203 90.438 115.978 90.438 115.752V77.8861L96.074 82.0511C96.9299 82.6815 97.9834 82.9846 99.0435 82.9053C100.104 82.8261 101.1 82.3698 101.853 81.6191L105.782 77.6871C106.539 76.9377 106.999 75.9402 107.078 74.8783C107.158 73.8164 106.851 72.7616 106.214 71.9081L100.714 64.4581C102.434 61.5783 103.724 58.4627 104.544 55.2101L113.695 53.8341C114.749 53.6811 115.712 53.1522 116.407 52.3449C117.102 51.5376 117.482 50.5062 117.476 49.4411V43.8791C117.481 42.8149 117.102 41.7845 116.409 40.9775C115.715 40.1706 114.753 39.6413 113.7 39.4871ZM49.731 44.7681L45.8 43.3491C45.4213 43.2121 45.0067 43.2121 44.628 43.3491L40.703 44.7681V34.9051C40.742 34.9051 40.782 34.9051 40.821 34.8991H49.727L49.731 44.7681ZM62.454 76.1871H71.478V86.0561L67.551 84.6371C67.1723 84.5001 66.7577 84.5001 66.379 84.6371L62.454 86.0561V76.1871ZM27.984 86.0561L24.057 84.6371C23.6783 84.5001 23.2637 84.5001 22.885 84.6371L18.96 86.0561V76.1871H27.984V86.0561ZM86.99 114.027H46.944V76.1871H59.006V88.5121C59.0088 88.7879 59.0773 89.0591 59.2058 89.3032C59.3342 89.5473 59.519 89.7574 59.7447 89.9159C59.9705 90.0744 60.2308 90.1769 60.504 90.2148C60.7772 90.2528 61.0556 90.2251 61.316 90.1341L66.965 88.0911L72.616 90.1341C72.8764 90.2198 73.1532 90.2436 73.4244 90.2035C73.6956 90.1633 73.9537 90.0604 74.1781 89.9028C74.4025 89.7453 74.5869 89.5375 74.7168 89.296C74.8466 89.0546 74.9183 88.7861 74.926 88.5121V76.1871H86.99V114.027ZM114.027 49.4401C114.028 49.6781 113.943 49.9086 113.788 50.0891C113.633 50.2696 113.418 50.3878 113.182 50.4221L102.875 51.9721C102.529 52.0242 102.207 52.1804 101.952 52.4199C101.696 52.6595 101.52 52.9709 101.446 53.3131C100.657 56.9736 99.2128 60.4613 97.183 63.6081C96.9936 63.9021 96.8981 64.2467 96.9092 64.5962C96.9203 64.9457 97.0374 65.2836 97.245 65.5651L103.438 73.9551C103.58 74.1466 103.648 74.383 103.63 74.6208C103.612 74.8585 103.508 75.0817 103.338 75.2491L99.409 79.1811C99.2423 79.3506 99.0198 79.4542 98.7827 79.4726C98.5456 79.491 98.3099 79.4229 98.119 79.2811L89.819 73.1441C89.5092 72.8849 89.1179 72.7433 88.714 72.7441H68.691V58.4281C70.7894 58.8136 72.9528 58.63 74.9562 57.8963C76.9596 57.1626 78.7299 55.9056 80.083 54.2561C80.3734 53.9028 80.5116 53.4486 80.4671 52.9935C80.4227 52.5383 80.1993 52.1195 79.846 51.8291C79.4927 51.5386 79.0386 51.4005 78.5834 51.4449C78.1283 51.4894 77.7094 51.7128 77.419 52.0661C76.3878 53.3242 75.0171 54.26 73.4698 54.7624C71.9226 55.2647 70.2636 55.3125 68.69 54.9001V38.4201C69.9493 38.0903 71.2674 38.054 72.5429 38.3138C73.8184 38.5735 75.0174 39.1225 76.0474 39.9185C77.0774 40.7144 77.911 41.7361 78.4841 42.9049C79.0572 44.0737 79.3544 45.3583 79.353 46.6601C79.353 47.1174 79.5347 47.5561 79.8581 47.8795C80.1815 48.2029 80.6201 48.3846 81.0775 48.3846C81.5349 48.3846 81.9735 48.2029 82.2969 47.8795C82.6203 47.5561 82.802 47.1174 82.802 46.6601C82.804 44.9064 82.4201 43.1737 81.6775 41.585C80.9349 39.9963 79.8517 38.5905 78.5049 37.4674C77.1581 36.3442 75.5807 35.5311 73.8845 35.0859C72.1882 34.6406 70.4148 34.5741 68.69 34.8911V33.1751C68.69 32.7178 68.5084 32.2793 68.1851 31.956C67.8617 31.6327 67.4232 31.4511 66.966 31.4511H55.474C55.803 31.395 56.1085 31.2442 56.353 31.0171C56.871 30.5361 57.419 30.0761 57.982 29.6491C58.3465 29.373 58.5865 28.9634 58.649 28.5104C58.7116 28.0574 58.5916 27.5981 58.3155 27.2336C58.0394 26.869 57.6298 26.6291 57.1768 26.5665C56.7238 26.504 56.2645 26.624 55.9 26.9001C55.247 27.4001 54.611 27.9301 54.01 28.4881C53.7738 28.7068 53.6036 28.9874 53.5187 29.2979C53.4339 29.6085 53.4379 29.9367 53.5301 30.2451C53.6224 30.5536 53.7993 30.83 54.0407 31.0429C54.2822 31.2559 54.5785 31.397 54.896 31.4501H43.465C43.794 30.8581 44.137 30.2761 44.501 29.7101C44.6906 29.416 44.7862 29.0711 44.7751 28.7214C44.764 28.3717 44.6468 28.0336 44.439 27.7521L38.246 19.3631C38.1038 19.1716 38.0357 18.9351 38.0541 18.6974C38.0724 18.4596 38.1761 18.2364 38.346 18.0691L42.275 14.1371C42.4416 13.9673 42.6641 13.8636 42.9013 13.8452C43.1384 13.8268 43.3742 13.895 43.565 14.0371L51.95 20.2371C52.2316 20.4451 52.5698 20.5626 52.9197 20.5738C53.2696 20.5851 53.6146 20.4896 53.909 20.3001C57.0531 18.2696 60.5385 16.8247 64.197 16.0351C64.539 15.961 64.8503 15.7846 65.0897 15.5294C65.329 15.2741 65.4851 14.9521 65.537 14.6061L67.083 4.29406C67.1168 4.05836 67.2348 3.84286 67.4151 3.68736C67.5954 3.53185 67.8259 3.44685 68.064 3.44806H73.621C73.859 3.44706 74.0894 3.53214 74.2697 3.6876C74.45 3.84307 74.568 4.05845 74.602 4.29406L76.151 14.6071C76.2029 14.9531 76.359 15.2751 76.5983 15.5304C76.8377 15.7856 77.149 15.962 77.491 16.0361C81.1494 16.8254 84.6348 18.27 87.779 20.3001C88.0733 20.4896 88.4184 20.5851 88.7683 20.5738C89.1182 20.5626 89.4564 20.4451 89.738 20.2371L98.123 14.0371C98.3139 13.8952 98.5496 13.8272 98.7867 13.8455C99.0238 13.8639 99.2463 13.9675 99.413 14.1371L103.343 18.0691C103.513 18.2364 103.617 18.4596 103.635 18.6974C103.653 18.9351 103.585 19.1716 103.443 19.3631L97.25 27.7521C97.0424 28.0335 96.9253 28.3714 96.9142 28.7209C96.9032 29.0704 96.9986 29.4151 97.188 29.7091C99.2177 32.8558 100.662 36.3436 101.451 40.0041C101.525 40.3462 101.701 40.6578 101.956 40.8973C102.212 41.1369 102.534 41.293 102.88 41.3451L113.186 42.8951C113.422 42.9295 113.637 43.048 113.792 43.2286C113.948 43.4092 114.032 43.6399 114.031 43.8781V49.4381L114.027 49.4401Z" fill="#96B91D"/>
</svg>
