<svg width="100" height="100" viewBox="0 0 100 100" fill="none" xmlns="http://www.w3.org/2000/svg">
<g clip-path="url(#clip0_29_65)">
<path d="M99.66 10.3486C99.5327 10.1998 99.3759 10.0789 99.1996 9.9937C99.0232 9.90848 98.8311 9.86074 98.6354 9.85349L86.7327 9.41404C86.5466 9.40667 86.3609 9.43616 86.1862 9.5008C86.0116 9.56544 85.8514 9.66397 85.715 9.79071C85.5785 9.91745 85.4684 10.0699 85.3911 10.2393C85.3138 10.4088 85.2707 10.5918 85.2643 10.7779L85.1645 13.4822C80.4495 13.5592 74.5418 12.626 68.809 11.7174C59.6131 10.2599 50.9272 8.88357 46.8395 11.6068C45.7848 12.3099 44.6471 13.097 43.4499 13.9521L29.6709 4.29861C28.8349 3.71432 27.8012 3.48551 26.7966 3.66236C25.792 3.83921 24.8986 4.40728 24.3124 5.24197L7.92407 28.6328C7.33963 29.4689 7.11071 30.5027 7.28753 31.5074C7.46434 32.5121 8.03246 33.4056 8.86724 33.992L49.6772 62.5838C50.5132 63.1684 51.547 63.3975 52.5517 63.2206C53.5564 63.0437 54.4499 62.4754 55.036 61.6404L69.4415 41.0789C70.9688 41.7873 72.9143 42.3054 75.9215 42.3054C77.7614 42.2873 79.5977 42.1385 81.4165 41.8603C82.337 41.7117 83.2468 41.5023 84.1397 41.2336L84.1143 41.9219C84.1004 42.2974 84.2363 42.6631 84.492 42.9385C84.7478 43.2138 85.1024 43.3763 85.478 43.3902L94.8161 43.7349H94.869C95.2155 43.7348 95.55 43.6077 95.8092 43.3776C96.0683 43.1475 96.2341 42.8304 96.2752 42.4863L99.9901 11.4379C100.013 11.2434 99.996 11.0461 99.9392 10.8587C99.8824 10.6712 99.7873 10.4975 99.66 10.3486ZM52.7149 60.0142C52.5605 60.2342 52.3252 60.3839 52.0605 60.4304C51.7958 60.477 51.5235 60.4166 51.3034 60.2625L10.4938 31.6709C10.2739 31.5165 10.1242 31.2812 10.0776 31.0165C10.0309 30.7519 10.0912 30.4796 10.2452 30.2594L26.6334 6.86795C26.7881 6.64836 27.0233 6.49894 27.2878 6.45238C27.5523 6.40582 27.8245 6.46591 28.0448 6.61951L54.0547 24.8422C53.129 24.883 52.2579 24.9244 51.4391 24.9672L33.0079 12.0539C32.7001 11.8386 32.3195 11.7543 31.9496 11.8194C31.5798 11.8846 31.2509 12.0939 31.0352 12.4013C30.4151 13.2843 29.4701 13.8852 28.4075 14.0722C27.345 14.2593 26.2516 14.0172 25.3672 13.3992C25.0596 13.1837 24.6789 13.0993 24.309 13.1645C23.939 13.2296 23.6101 13.439 23.3946 13.7467L15.6055 24.8642C15.3901 25.1719 15.3057 25.5526 15.3709 25.9225C15.436 26.2924 15.6454 26.6213 15.953 26.8369C16.8359 27.457 17.4368 28.4019 17.6239 29.4644C17.811 30.5269 17.569 31.6203 16.951 32.5047C16.7357 32.8124 16.6513 33.193 16.7164 33.5629C16.7815 33.9328 16.9908 34.2617 17.2983 34.4773L46.3432 54.8265C46.4956 54.9333 46.6676 55.009 46.8493 55.0493C47.0309 55.0896 47.2188 55.0938 47.402 55.0615C47.5853 55.0292 47.7604 54.9611 47.9174 54.8612C48.0744 54.7612 48.2101 54.6313 48.3168 54.4789C48.937 53.596 49.882 52.9951 50.9446 52.8081C52.0071 52.6211 53.1005 52.8632 53.9848 53.4812C54.2926 53.6965 54.6732 53.7809 55.043 53.7157C55.4129 53.6506 55.7418 53.4412 55.9575 53.1338L63.7467 42.0162C63.9623 41.7084 64.0469 41.3275 63.9817 40.9574C63.9165 40.5873 63.707 40.2582 63.3993 40.0426C62.9602 39.7329 62.5865 39.3398 62.2994 38.8856C62.0124 38.4315 61.8178 37.9252 61.7266 37.3957C64.1823 37.8289 65.5235 38.6992 66.9254 39.614L66.9821 39.651L52.7149 60.0142ZM38.4073 34.8803C38.5102 34.7336 38.5844 34.5688 38.6258 34.3945C38.7478 34.5269 38.8618 34.6663 38.9674 34.8121C38.9547 34.8342 38.9374 34.8627 38.9131 34.897L38.7545 35.1236C38.7216 35.1679 38.6727 35.1976 38.6181 35.2064C38.5636 35.2152 38.5078 35.2024 38.4626 35.1707C38.4174 35.139 38.3863 35.091 38.376 35.0367C38.3657 34.9825 38.3769 34.9263 38.4073 34.8803ZM38.5137 29.8357C38.4274 29.9295 38.347 30.0287 38.2731 30.1326L38.1143 30.3592C37.4915 31.2482 37.4307 32.0388 37.602 32.6949C37.3225 32.6228 37.0276 32.6376 36.7567 32.7376C36.4858 32.8375 36.2519 33.0177 36.0862 33.2541C35.856 33.5813 35.693 33.9509 35.6066 34.3415C35.5202 34.7321 35.5121 35.1359 35.5829 35.5297C35.636 35.8315 35.7339 36.1236 35.8735 36.3965L35.7512 36.5711C35.6444 36.7235 35.5687 36.8954 35.5284 37.0771C35.488 37.2588 35.4839 37.4466 35.5161 37.6299C35.5484 37.8132 35.6164 37.9883 35.7164 38.1453C35.8163 38.3022 35.9462 38.438 36.0986 38.5448C36.251 38.6516 36.4229 38.7273 36.6046 38.7677C36.7863 38.808 36.9741 38.8121 37.1574 38.7799C37.3407 38.7476 37.5158 38.6796 37.6728 38.5797C37.8298 38.4797 37.9655 38.3498 38.0723 38.1974L38.1956 38.0217C38.3204 38.038 38.4461 38.0464 38.5719 38.047C38.7519 38.047 38.9314 38.0313 39.1086 38C39.5029 37.9321 39.8797 37.7866 40.2174 37.5721C40.555 37.3575 40.8467 37.0781 41.0756 36.75L41.2342 36.5234C41.3953 36.297 41.5294 36.0526 41.6338 35.7951C42.8534 36.3367 44.1828 36.5856 45.5157 36.522L45.6524 36.5283C45.5138 36.7964 45.3576 37.0551 45.1848 37.3025C44.505 38.2737 43.5807 39.0481 42.5054 39.5473C41.4301 40.0464 40.242 40.2527 39.0614 40.1451C37.8808 40.0375 36.7496 39.6199 35.7823 38.9346C34.8149 38.2492 34.0458 37.3205 33.5528 36.2424C33.0598 35.1643 32.8603 33.9751 32.9746 32.7951C33.0889 31.6151 33.5129 30.4863 34.2037 29.5229C34.8945 28.5595 35.8276 27.7957 36.9085 27.3088C37.9894 26.8219 39.1797 26.6292 40.359 26.7502C39.4164 27.5436 38.7667 28.6299 38.5137 29.8357ZM44.9415 25.4635C43.6979 24.6433 42.28 24.125 40.8007 23.9499C39.3214 23.7748 37.8216 23.9478 36.421 24.455C35.0204 24.9623 33.7576 25.7898 32.7335 26.8715C31.7094 27.9533 30.9521 29.2594 30.5222 30.6856C30.0923 32.1119 30.0016 33.6188 30.2573 35.0864C30.513 36.5539 31.108 37.9414 31.995 39.1382C32.8819 40.335 34.0363 41.308 35.3659 41.9797C36.6956 42.6513 38.1637 43.003 39.6534 43.0066C40.2161 43.0063 40.7777 42.9571 41.3319 42.8594C42.9934 42.567 44.5479 41.8402 45.8377 40.7528C47.1275 39.6654 48.1066 38.2561 48.6756 36.6679L58.8442 37.1388C58.9488 38.74 59.6029 40.256 60.6961 41.4306L54.3643 50.4687C53.1309 49.9436 51.7716 49.7877 50.4514 50.0199C49.1311 50.2522 47.9067 50.8627 46.9266 51.7773L19.9631 32.8867C20.4883 31.6533 20.6442 30.294 20.4119 28.9737C20.1796 27.6534 19.5691 26.4289 18.6545 25.4488L24.9852 16.4129C26.2185 16.9377 27.5776 17.0935 28.8976 16.8611C30.2177 16.6288 31.4419 16.0185 32.4219 15.1041L46.9235 25.264C46.1995 25.3258 45.5389 25.3922 44.9415 25.4635ZM81.0129 39.0552C73.0145 40.2058 70.9092 38.8326 68.4721 37.2424C66.6778 36.0717 64.644 34.7447 60.4811 34.3789C60.4616 34.3771 60.442 34.3758 60.4225 34.375L45.5918 33.6881C45.5545 33.6863 45.517 33.6861 45.4795 33.6881C43.4004 33.7553 41.8735 33.0295 41.3868 31.7433C41.2064 31.245 41.1877 30.7026 41.3331 30.193C41.4786 29.6835 41.7809 29.2327 42.1971 28.9047C43.5819 28.0648 53.0098 27.708 58.0817 27.516C61.9823 27.3683 65.351 27.2408 66.8751 26.9929C67.246 26.9326 67.5778 26.7274 67.7974 26.4224C68.017 26.1174 68.1065 25.7377 68.0462 25.3668C67.9858 24.9958 67.7806 24.6641 67.4756 24.4444C67.1706 24.2248 66.7909 24.1353 66.42 24.1957C65.162 24.4002 62.0879 24.5277 58.7256 24.6556L45.9131 15.6793C46.787 15.064 47.6225 14.4908 48.41 13.9662C51.5764 11.8568 60.111 13.2092 68.3647 14.5172C74.1561 15.4351 80.1225 16.3771 85.059 16.3181L84.2502 38.248C83.1914 38.592 82.1099 38.8617 81.0135 39.0552H81.0129ZM93.6163 40.8547L86.9983 40.6105L88.0434 12.2984L96.9928 12.6287L93.6163 40.8547ZM90.3155 21.3752L90.4317 18.2291C90.4378 18.0426 90.4806 17.8591 90.5578 17.6892C90.635 17.5194 90.7449 17.3664 90.8814 17.2391C91.0178 17.1118 91.178 17.0127 91.3529 16.9475C91.5277 16.8824 91.7137 16.8523 91.9002 16.8592C92.0866 16.8661 92.2699 16.9097 92.4395 16.9876C92.609 17.0655 92.7615 17.1762 92.8882 17.3131C93.0149 17.4501 93.1133 17.6108 93.1777 17.7859C93.2422 17.961 93.2714 18.1471 93.2637 18.3336L93.1475 21.4799C93.134 21.8462 92.9791 22.1931 92.7152 22.4475C92.4513 22.702 92.0991 22.8443 91.7325 22.8445C91.7149 22.8445 91.6971 22.8445 91.6794 22.8445C91.3037 22.8304 90.9491 22.6677 90.6934 22.3922C90.4378 22.1166 90.302 21.7508 90.3161 21.3752H90.3155ZM79.3852 69.9271L52.2997 80.6779C47.419 81.2951 42.8661 81.0726 38.5149 79.9943C49.7622 78.2203 54.5428 77.1308 55.7932 76.0978C56.5911 75.453 57.1673 74.5746 57.441 73.5859C57.7147 72.5971 57.6723 71.5475 57.3196 70.5842C56.468 68.3334 54.1555 67.0527 51.1317 67.1494C51.078 67.1511 51.0245 67.1559 50.9713 67.1638L38.0706 69.0701C35.1799 68.7885 33.836 67.9119 32.4149 66.9847C30.0334 65.4306 27.5711 63.8242 19.5276 64.981C18.3176 65.1552 16.9038 65.5881 15.4065 66.0461C15.0387 66.1586 14.6643 66.2722 14.2874 66.3849L14.3348 65.0996C14.3487 64.724 14.2128 64.3583 13.9571 64.083C13.7013 63.8076 13.3467 63.6451 12.9711 63.6312L4.74224 63.3277C4.38683 63.3148 4.03955 63.436 3.76924 63.6671C3.49894 63.8982 3.32534 64.2225 3.28286 64.5756L0.0100127 91.9377C-0.0132307 92.1322 0.00409848 92.3293 0.0609064 92.5168C0.117714 92.7042 0.212767 92.8779 0.340064 93.0267C0.467361 93.1756 0.624137 93.2965 0.800496 93.3817C0.976855 93.4669 1.16897 93.5146 1.3647 93.5219L11.853 93.909H11.9061C12.2727 93.9087 12.625 93.7664 12.8889 93.5119C13.1528 93.2574 13.3078 92.9105 13.3213 92.5441L13.3727 91.1535C17.2114 92.0773 20.0116 92.9297 22.5178 93.6926C27.4592 95.1965 31.0307 96.2842 38.0979 96.3879C38.4452 96.3931 38.7831 96.3957 39.1135 96.3957C47.5139 96.3957 50.7932 94.7683 55.6588 92.3527L56.2917 92.0388C68.7188 85.8883 83.9071 78.1326 84.8641 77.3525C86.8549 75.7287 87.5399 72.967 86.4227 71.0652C85.9842 70.3176 84.1786 68.0246 79.3852 69.9271ZM10.542 91.0248L3.00669 90.7467L5.94204 66.209L11.4499 66.4121L10.542 91.0248ZM83.0983 75.1367C82.0424 75.8468 69.6167 82.283 55.0356 89.4996L54.3997 89.8148C49.5452 92.225 46.617 93.6791 38.1399 93.5552C31.4735 93.4576 28.2393 92.473 23.3438 90.9826C20.8104 90.2115 17.7047 89.2668 13.4805 88.2677L14.1782 69.3709C14.8844 69.1705 15.5694 68.9621 16.237 68.7576C17.6262 68.3326 18.9385 67.931 19.9319 67.7881C26.9182 66.7828 28.7479 67.9771 30.8672 69.3597C32.4649 70.4023 34.2758 71.584 37.9862 71.9099C38.0969 71.9196 38.2083 71.9164 38.3182 71.9002L51.3038 69.9814C53.02 69.9455 54.2741 70.5412 54.6704 71.5886C54.8169 71.9963 54.831 72.4397 54.7108 72.8558C54.5905 73.272 54.3419 73.6395 54.0004 73.906C53.8196 74.0277 52.6333 74.6482 46.0417 75.8619C42.029 76.601 37.5897 77.2787 34.6522 77.7273C33.6579 77.8791 32.8583 78.0008 32.3401 78.0855C32.0373 78.1348 31.7586 78.281 31.546 78.5022C31.3334 78.7234 31.1984 79.0076 31.1611 79.3121C31.1239 79.6167 31.1865 79.9251 31.3395 80.191C31.4926 80.4569 31.7278 80.6659 32.0098 80.7867C38.5079 83.5701 45.3221 84.4461 52.8415 83.4666C52.9579 83.4513 53.0719 83.4217 53.1811 83.3785L80.4323 72.5619C82.1983 71.8613 83.5913 71.8377 83.9813 72.5017C84.336 73.1088 84.061 74.3347 83.0983 75.1367ZM5.93579 85.8746L6.03814 83.1023C6.05374 82.728 6.21692 82.3751 6.49201 82.1208C6.76709 81.8665 7.13168 81.7315 7.50605 81.7453C7.88042 81.7591 8.23409 81.9206 8.48972 82.1944C8.74535 82.4682 8.88214 82.8322 8.87017 83.2066L8.76782 85.98C8.75433 86.3464 8.59937 86.6933 8.3355 86.9478C8.07164 87.2023 7.71939 87.3446 7.35279 87.3449C7.33501 87.3449 7.31724 87.3449 7.29947 87.3437C7.11344 87.3369 6.93058 87.2934 6.76135 87.2159C6.59211 87.1383 6.43982 87.0282 6.31318 86.8917C6.18654 86.7553 6.08802 86.5952 6.02327 86.4207C5.95852 86.2462 5.92879 86.0606 5.93579 85.8746ZM31.4864 27.7047C31.2707 28.0124 30.9416 28.2219 30.5715 28.2871C30.2014 28.3522 29.8206 28.2677 29.5127 28.0521L22.9268 23.4375C22.619 23.2218 22.4095 22.8927 22.3443 22.5226C22.2792 22.1525 22.3637 21.7716 22.5793 21.4638C22.795 21.156 23.1241 20.9465 23.4942 20.8814C23.8643 20.8162 24.2452 20.9007 24.553 21.1164L31.1389 25.7306C31.2914 25.8374 31.4213 25.9732 31.5213 26.1302C31.6213 26.2872 31.6893 26.4624 31.7216 26.6457C31.7539 26.829 31.7497 27.0169 31.7093 27.1986C31.669 27.3803 31.5932 27.5522 31.4864 27.7047ZM47.8624 39.1777C48.078 38.8702 48.4069 38.6608 48.7768 38.5957C49.1467 38.5305 49.5273 38.6149 49.835 38.8302L56.4212 43.4445C56.5751 43.5506 56.7065 43.6862 56.8078 43.8434C56.9091 44.0005 56.9784 44.1762 57.0115 44.3602C57.0446 44.5442 57.0409 44.733 57.0008 44.9156C56.9606 45.0982 56.8847 45.2711 56.7774 45.4242C56.6701 45.5774 56.5335 45.7078 56.3756 45.8079C56.2177 45.908 56.0415 45.9759 55.8572 46.0076C55.6729 46.0393 55.4842 46.0342 55.3019 45.9927C55.1196 45.9511 54.9473 45.8739 54.795 45.7654L48.2096 41.1523C48.0571 41.0455 47.9271 40.9097 47.8271 40.7526C47.7271 40.5956 47.6591 40.4203 47.6268 40.237C47.5946 40.0536 47.5988 39.8657 47.6392 39.6839C47.6796 39.5022 47.7554 39.3301 47.8624 39.1777Z" fill="#FE96A6"/>
</g>
<defs>
<clipPath id="clip0_29_65">
<rect width="100" height="100" fill="white"/>
</clipPath>
</defs>
</svg>
