<svg width="1877" height="1014" viewBox="0 0 1877 1014" fill="none" xmlns="http://www.w3.org/2000/svg">
<path d="M1995.12 -585.595L-398 -36.758L-153.928 1013.43L2239.19 464.598L1995.12 -585.595Z" fill="#3F006F"/>
<path d="M1994.74 -584.999L-397.4 -36.3858L-153.553 1012.84L2238.59 464.225L1994.74 -584.999Z" stroke="#707070"/>
<path opacity="0.38" d="M-363.847 867.436C-346.567 746.445 -37.3325 738.172 -25.1368 510.453C0.520281 31.3817 841.17 1035.19 910.52 763.149C1048.97 220.063 2597.22 282.483 2631.09 195.841M-302.91 454.748C-259.035 563.653 -119.879 742.382 85.7543 586.057C342.796 390.651 477.38 10.2612 784.576 128.971C1091.77 247.681 1436.8 709.547 1594.73 411.848M-361.182 832.572C-342.635 722.528 -41.4999 723.162 -20.0923 498.839C16.5826 33.2758 823.611 971.167 904.286 717.736C1050.77 206.164 2541.72 287.607 2581.51 190.914M-358.515 797.71C-338.702 698.613 -45.6672 708.151 -15.0468 487.229C32.6459 35.1728 806.052 907.147 898.053 672.325C1052.57 192.27 2486.23 292.735 2531.92 185.988M-355.85 762.844C-334.771 674.696 -49.8327 693.138 -10.0034 475.615C48.7082 37.0679 788.493 843.131 891.82 626.916C1054.37 178.373 2430.73 297.856 2482.33 181.067M-353.184 727.984C-330.838 650.782 -54 678.13 -4.95889 464.008C64.7716 38.9679 770.934 779.116 885.587 581.509C1056.18 164.481 2375.24 302.985 2432.74 176.142M-350.518 693.117C-326.906 626.863 -58.1664 663.116 0.0894724 452.39C80.8378 40.858 753.377 715.093 879.357 536.092C1057.98 150.579 2319.75 308.104 2383.16 171.206M-347.852 658.259C-322.974 602.952 -62.3327 648.109 5.13107 440.786C96.8983 42.762 735.815 651.083 873.12 490.689C1059.78 136.691 2264.25 313.236 2333.57 166.292M-345.187 623.39C-319.042 579.03 -66.5031 633.092 10.1744 429.168C112.959 44.6521 718.255 587.059 866.886 445.273C1061.58 122.789 2208.76 318.355 2283.98 161.36M-342.521 588.526C-315.109 555.114 -70.6665 618.081 15.2189 417.557C129.022 46.5482 700.696 523.041 860.653 399.862C1063.38 108.892 2153.27 323.48 2234.4 156.435M-339.855 553.662C-311.177 531.198 -74.8329 603.069 20.2644 405.945C145.086 48.4442 683.137 459.023 854.421 354.451C1065.19 94.9952 2097.77 328.605 2184.81 151.509M-337.189 518.798C-307.245 507.281 -79.0003 588.057 25.3088 394.335C161.149 50.3422 665.577 395.007 848.183 309.042C1066.99 81.0993 2042.28 333.729 2135.22 146.584M-334.524 483.935C-303.314 483.366 -83.1676 573.046 30.3493 382.723C177.212 52.2333 648.018 330.988 841.953 263.631C1068.79 67.2035 1986.78 338.854 2085.64 141.663M-331.857 449.071C-299.381 459.449 -87.338 558.035 35.3978 371.111C193.274 54.1344 630.456 266.971 835.724 218.22C1070.59 53.3067 1931.29 343.979 2036.05 136.734M-329.059 422.81C-295.316 444.135 -91.3669 551.626 40.5757 368.102C209.467 64.6351 613.032 211.558 829.62 181.415C1072.53 48.0155 1875.93 357.709 1986.6 140.412M-325.987 414.097C-290.982 446.37 -95.1285 562.766 46.0259 382.641C225.939 92.6797 595.879 173.687 823.793 162.15C1074.74 60.2652 1820.84 388.979 1937.42 161.632M-322.856 409.178C-286.581 452.398 -98.8303 577.698 51.5349 400.974C228.911 144.148 531.758 138.941 765.382 145.161C783.561 145.645 801.035 146.187 818.022 146.69C1077 76.3193 1765.81 424.054 1888.29 186.658M-319.583 413.577C-282.038 467.744 -102.389 601.95 57.1876 428.626C259.14 165.68 561.834 114.861 812.4 140.54C1079.42 101.679 1710.93 468.44 1839.32 220.988M-316.25 421.679C-277.441 486.795 -105.888 629.904 62.8997 459.979C275.868 210.541 544.941 93.8083 806.832 138.094C1081.89 130.752 1656.1 516.529 1790.4 259.031M-312.915 429.903C-272.844 505.965 -109.386 657.98 68.6126 491.455C292.599 255.525 528.051 72.8776 801.269 135.769C1084.36 159.942 1601.28 564.739 1741.48 297.192M-309.58 438.168C-268.238 525.179 -112.884 686.098 74.3263 522.973C309.332 300.55 511.16 51.9886 795.705 133.489C1086.83 189.175 1546.45 612.994 1692.56 335.397M-306.245 446.453C-263.637 544.406 -116.381 714.235 80.0412 554.509C326.064 345.595 494.271 31.1194 790.141 131.228C1089.3 218.429 1491.63 661.268 1643.65 373.62" stroke="white"/>
</svg>
